<?xml version="1.0" encoding="utf-8"?>
<!-- Generator: Adobe Illustrator 21.0.2, SVG Export Plug-In . SVG Version: 6.00 Build 0)  -->
<svg version="1.1" id="Layer_1" xmlns="http://www.w3.org/2000/svg" xmlns:xlink="http://www.w3.org/1999/xlink" x="0px" y="0px"
	 viewBox="0 0 400 200" style="enable-background:new 0 0 400 200;" xml:space="preserve">
<style type="text/css">
	.st0{fill:#1A1A1A;}
	.st1{fill:#F36C38;}
</style>
<g>
	<g>
		<path class="st0" d="M159.8,158.7l-1.4-4.5h-7.8l-1.4,4.5h-7.7l9.4-25.9h7.2l9.4,25.9H159.8z M156.1,146.7
			c-0.9-3.3-1.3-4.7-1.7-6.5c-0.3,1.7-0.7,3.2-1.7,6.5l-0.5,1.7h4.3L156.1,146.7z"/>
		<path class="st0" d="M188.8,158.7h-12.4v-25.9h12.5c6.4,0,9.1,2.4,9.1,6.7c0,2.8-1.4,4.1-3.1,5.1c2.3,1,3.7,2.8,3.7,5.7
			C198.5,155.6,195.3,158.7,188.8,158.7z M188.6,138.4h-5.4v4.1h5.4c1.7,0,2.3-0.8,2.3-2C190.9,139.3,190.3,138.4,188.6,138.4z
			 M188.9,148h-5.7v5h5.7c1.8,0,2.6-1.1,2.6-2.6C191.5,148.9,190.6,148,188.9,148z"/>
		<path class="st0" d="M207.8,158.7v-25.9h19.8v6h-12.7v3.4h7.7v6h-7.7v4.4h13v6H207.8z"/>
		<path class="st0" d="M251.3,139v19.6h-7.2V139h-7.2v-6.3h21.7v6.3H251.3z"/>
	</g>
	<path class="st1" d="M199.8,117.3c-21,0-38-17-38-38c0-21,17-38,38-38c21,0,38,17,38,38C237.8,100.3,220.7,117.3,199.8,117.3z
		 M199.8,51c-15.6,0-28.3,12.7-28.3,28.3c0,15.6,12.7,28.3,28.3,28.3c15.6,0,28.3-12.7,28.3-28.3C228.1,63.7,215.4,51,199.8,51z"/>
</g>
</svg>
