<?xml version="1.0" encoding="UTF-8"?>
<svg id="Calque_1" data-name="Calque 1" xmlns="http://www.w3.org/2000/svg" viewBox="0 0 400.27 91.66">
  <defs>
    <style>
      .cls-1 {
        fill: #838484;
      }

      .cls-1, .cls-2, .cls-3, .cls-4, .cls-5, .cls-6, .cls-7, .cls-8, .cls-9, .cls-10 {
        stroke-width: 0px;
      }

      .cls-2 {
        fill: #2e7ebf;
      }

      .cls-3 {
        fill: #267bbf;
      }

      .cls-4 {
        fill: #dfdfdd;
      }

      .cls-5 {
        fill: #9d9d9c;
      }

      .cls-6 {
        fill: #fff;
      }

      .cls-7 {
        fill: #ecf0f8;
      }

      .cls-8 {
        fill: #fccb18;
      }

      .cls-9 {
        fill: #ec6719;
      }

      .cls-10 {
        fill: #f5f7fb;
      }
    </style>
  </defs>
  <g>
    <g>
      <path class="cls-6" d="m94.13,11.01h9.83v2.55h-6.98v2.65h6.15v2.55h-6.15v2.74h7.08v2.55h-9.93v-13.04Z"/>
      <path class="cls-6" d="m105.64,19.11v-.04c0-2.85,2.18-5.2,5.23-5.2,1.88,0,3.05.63,3.99,1.68l-1.73,1.86c-.63-.67-1.27-1.1-2.27-1.1-1.42,0-2.42,1.25-2.42,2.72v.04c0,1.53.99,2.76,2.53,2.76.95,0,1.6-.41,2.29-1.06l1.66,1.68c-.97,1.06-2.09,1.83-4.08,1.83-3,0-5.2-2.31-5.2-5.16Z"/>
      <path class="cls-6" d="m116.01,19.11v-.04c0-2.87,2.31-5.2,5.42-5.2s5.38,2.29,5.38,5.16v.04c0,2.87-2.31,5.2-5.42,5.2s-5.38-2.29-5.38-5.16Zm8.01,0v-.04c0-1.47-1.06-2.76-2.63-2.76s-2.59,1.25-2.59,2.72v.04c0,1.47,1.06,2.76,2.63,2.76s2.59-1.25,2.59-2.72Z"/>
      <path class="cls-6" d="m129,10.45h2.83v13.6h-2.83v-13.6Z"/>
      <path class="cls-6" d="m134.01,19.11v-.04c0-2.85,2.03-5.2,4.94-5.2,3.33,0,4.86,2.59,4.86,5.42,0,.22-.02.48-.04.75h-6.95c.28,1.29,1.17,1.95,2.44,1.95.95,0,1.64-.3,2.42-1.02l1.62,1.43c-.93,1.15-2.27,1.86-4.08,1.86-3,0-5.22-2.1-5.22-5.16Zm7.04-.84c-.17-1.27-.91-2.12-2.1-2.12s-1.94.84-2.16,2.12h4.27Z"/>
      <path class="cls-6" d="m150.9,22.14l1.69-2.03c1.17.97,2.4,1.58,3.89,1.58,1.17,0,1.88-.47,1.88-1.23v-.04c0-.73-.45-1.1-2.63-1.66-2.63-.67-4.32-1.4-4.32-3.98v-.04c0-2.36,1.9-3.93,4.56-3.93,1.9,0,3.52.6,4.84,1.66l-1.49,2.16c-1.16-.8-2.29-1.29-3.39-1.29s-1.68.5-1.68,1.14v.04c0,.86.56,1.14,2.81,1.71,2.64.69,4.13,1.64,4.13,3.91v.04c0,2.59-1.97,4.04-4.79,4.04-1.97,0-3.97-.69-5.53-2.09Z"/>
      <path class="cls-6" d="m163.34,20.52v-6.46h2.83v5.57c0,1.34.63,2.03,1.71,2.03s1.77-.69,1.77-2.03v-5.57h2.83v9.98h-2.83v-1.42c-.65.84-1.49,1.6-2.92,1.6-2.14,0-3.39-1.42-3.39-3.71Z"/>
      <path class="cls-6" d="m175.02,14.06h2.83v1.43c.69-.93,1.64-1.62,3.11-1.62,2.33,0,4.54,1.82,4.54,5.16v.04c0,3.33-2.18,5.16-4.54,5.16-1.51,0-2.44-.69-3.11-1.49v4.28h-2.83v-12.96Zm7.65,5.01v-.04c0-1.66-1.12-2.76-2.44-2.76s-2.42,1.1-2.42,2.76v.04c0,1.66,1.1,2.76,2.42,2.76s2.44-1.08,2.44-2.76Z"/>
      <path class="cls-6" d="m187.11,19.11v-.04c0-2.85,2.03-5.2,4.94-5.2,3.33,0,4.86,2.59,4.86,5.42,0,.22-.02.48-.04.75h-6.95c.28,1.29,1.17,1.95,2.44,1.95.95,0,1.64-.3,2.42-1.02l1.62,1.43c-.93,1.15-2.27,1.86-4.08,1.86-3,0-5.22-2.1-5.22-5.16Zm7.04-.84c-.17-1.27-.91-2.12-2.1-2.12s-1.94.84-2.16,2.12h4.27Zm-1.19-8.6l2.44,1.06-2.42,2.24h-2.09l2.07-3.3Z"/>
      <path class="cls-6" d="m199.01,14.06h2.83v2.01c.58-1.38,1.51-2.27,3.19-2.2v2.96h-.15c-1.88,0-3.04,1.14-3.04,3.52v3.69h-2.83v-9.98Z"/>
      <path class="cls-6" d="m206.86,10.45h2.98v2.51h-2.98v-2.51Zm.07,3.61h2.83v9.98h-2.83v-9.98Z"/>
      <path class="cls-6" d="m211.94,19.11v-.04c0-2.85,2.03-5.2,4.94-5.2,3.33,0,4.86,2.59,4.86,5.42,0,.22-.02.48-.04.75h-6.95c.28,1.29,1.17,1.95,2.44,1.95.95,0,1.64-.3,2.42-1.02l1.62,1.43c-.93,1.15-2.27,1.86-4.08,1.86-3,0-5.22-2.1-5.22-5.16Zm7.04-.84c-.17-1.27-.91-2.12-2.1-2.12s-1.94.84-2.16,2.12h4.27Z"/>
      <path class="cls-6" d="m223.77,20.52v-6.46h2.83v5.57c0,1.34.63,2.03,1.71,2.03s1.77-.69,1.77-2.03v-5.57h2.83v9.98h-2.83v-1.42c-.65.84-1.49,1.6-2.92,1.6-2.14,0-3.39-1.42-3.39-3.71Z"/>
      <path class="cls-6" d="m235.45,14.06h2.83v2.01c.58-1.38,1.51-2.27,3.19-2.2v2.96h-.15c-1.88,0-3.04,1.14-3.04,3.52v3.69h-2.83v-9.98Z"/>
      <path class="cls-6" d="m242.47,19.11v-.04c0-2.85,2.03-5.2,4.94-5.2,3.33,0,4.86,2.59,4.86,5.42,0,.22-.02.48-.04.75h-6.95c.28,1.29,1.17,1.95,2.44,1.95.95,0,1.64-.3,2.42-1.02l1.62,1.43c-.93,1.15-2.27,1.86-4.08,1.86-3,0-5.22-2.1-5.22-5.16Zm7.04-.84c-.17-1.27-.91-2.12-2.1-2.12s-1.94.84-2.16,2.12h4.27Z"/>
    </g>
    <g>
      <path class="cls-6" d="m93.38,41.42v-.04c0-3.33,2.18-5.16,4.54-5.16,1.51,0,2.44.69,3.11,1.49v-4.92h2.83v13.6h-2.83v-1.43c-.69.93-1.64,1.62-3.11,1.62-2.33,0-4.54-1.82-4.54-5.16Zm7.69,0v-.04c0-1.66-1.1-2.76-2.42-2.76s-2.44,1.08-2.44,2.76v.04c0,1.66,1.12,2.76,2.44,2.76s2.42-1.1,2.42-2.76Z"/>
      <path class="cls-6" d="m105.71,38.18c1.29-.13,1.92-.78,1.82-1.84h-1.16v-2.98h3.02v2.51c0,2.46-1.23,3.44-3.44,3.48l-.24-1.17Z"/>
      <path class="cls-6" d="m112.16,33.36h2.87v13.04h-2.87v-13.04Z"/>
      <path class="cls-6" d="m117.99,36.41h2.83v1.41c.65-.84,1.49-1.6,2.92-1.6,2.14,0,3.39,1.41,3.39,3.71v6.46h-2.83v-5.57c0-1.34-.63-2.03-1.71-2.03s-1.77.69-1.77,2.03v5.57h-2.83v-9.98Z"/>
      <path class="cls-6" d="m130.08,38.84h-1.17v-2.33h1.17v-.63c0-1.1.28-1.9.8-2.42s1.29-.78,2.29-.78c.89,0,1.49.11,2.01.28v2.35c-.41-.15-.8-.24-1.29-.24-.65,0-1.02.33-1.02,1.08v.39h2.29v2.31h-2.25v7.56h-2.83v-7.56Z"/>
      <path class="cls-6" d="m136.06,41.46v-.04c0-2.87,2.31-5.2,5.42-5.2s5.38,2.29,5.38,5.16v.04c0,2.87-2.31,5.2-5.42,5.2s-5.38-2.29-5.38-5.16Zm8.01,0v-.04c0-1.47-1.06-2.76-2.63-2.76s-2.59,1.25-2.59,2.72v.04c0,1.47,1.06,2.76,2.63,2.76s2.59-1.25,2.59-2.72Z"/>
      <path class="cls-6" d="m148.91,36.41h2.83v2.01c.58-1.38,1.51-2.27,3.19-2.2v2.96h-.15c-1.88,0-3.04,1.14-3.04,3.52v3.69h-2.83v-9.98Z"/>
      <path class="cls-6" d="m156.69,36.41h2.83v1.41c.65-.84,1.51-1.6,2.94-1.6,1.3,0,2.29.58,2.81,1.58.87-1.02,1.92-1.58,3.28-1.58,2.1,0,3.37,1.27,3.37,3.67v6.5h-2.83v-5.57c0-1.34-.6-2.03-1.66-2.03s-1.71.69-1.71,2.03v5.57h-2.83v-5.57c0-1.34-.6-2.03-1.66-2.03s-1.71.69-1.71,2.03v5.57h-2.83v-9.98Z"/>
      <path class="cls-6" d="m173.79,43.53v-.04c0-2.18,1.66-3.19,4.02-3.19,1.01,0,1.73.17,2.44.41v-.17c0-1.17-.73-1.82-2.14-1.82-1.08,0-1.84.2-2.76.54l-.71-2.16c1.1-.48,2.18-.8,3.87-.8,1.55,0,2.66.41,3.37,1.12.75.75,1.08,1.84,1.08,3.18v5.79h-2.74v-1.08c-.69.76-1.64,1.27-3.02,1.27-1.88,0-3.43-1.08-3.43-3.05Zm6.5-.65v-.5c-.48-.22-1.12-.37-1.81-.37-1.21,0-1.95.48-1.95,1.38v.04c0,.76.63,1.21,1.55,1.21,1.32,0,2.22-.73,2.22-1.75Z"/>
      <path class="cls-6" d="m185.79,43.57v-4.73h-1.19v-2.42h1.19v-2.55h2.83v2.55h2.35v2.42h-2.35v4.27c0,.65.28.97.91.97.52,0,.99-.13,1.4-.35v2.27c-.6.35-1.29.58-2.24.58-1.73,0-2.9-.69-2.9-3Z"/>
      <path class="cls-6" d="m193.11,32.8h2.98v2.51h-2.98v-2.51Zm.07,3.61h2.83v9.98h-2.83v-9.98Z"/>
      <path class="cls-6" d="m205.89,44.96c-.69.93-1.64,1.62-3.11,1.62-2.33,0-4.54-1.82-4.54-5.16v-.04c0-3.33,2.18-5.16,4.54-5.16,1.51,0,2.44.69,3.11,1.49v-1.3h2.83v12.96h-2.83v-4.41Zm.04-3.54v-.04c0-1.66-1.1-2.76-2.42-2.76s-2.44,1.08-2.44,2.76v.04c0,1.66,1.12,2.76,2.44,2.76s2.42-1.1,2.42-2.76Z"/>
      <path class="cls-6" d="m211.18,42.88v-6.46h2.83v5.57c0,1.34.63,2.03,1.71,2.03s1.77-.69,1.77-2.03v-5.57h2.83v9.98h-2.83v-1.42c-.65.84-1.49,1.6-2.92,1.6-2.14,0-3.39-1.42-3.39-3.71Z"/>
      <path class="cls-6" d="m222.37,41.46v-.04c0-2.85,2.03-5.2,4.94-5.2,3.33,0,4.86,2.59,4.86,5.42,0,.22-.02.48-.04.75h-6.95c.28,1.29,1.17,1.95,2.44,1.95.95,0,1.64-.3,2.42-1.02l1.62,1.43c-.93,1.15-2.27,1.86-4.08,1.86-3,0-5.22-2.1-5.22-5.16Zm7.04-.84c-.17-1.27-.91-2.12-2.1-2.12s-1.94.84-2.16,2.12h4.27Z"/>
      <path class="cls-6" d="m239.38,41.46v-.04c0-2.85,2.03-5.2,4.94-5.2,3.33,0,4.86,2.59,4.86,5.42,0,.22-.02.48-.04.75h-6.95c.28,1.29,1.17,1.95,2.44,1.95.95,0,1.64-.3,2.42-1.02l1.62,1.43c-.93,1.15-2.27,1.86-4.08,1.86-3,0-5.22-2.1-5.22-5.16Zm7.04-.84c-.17-1.27-.91-2.12-2.1-2.12s-1.94.84-2.16,2.12h4.27Z"/>
      <path class="cls-6" d="m251.75,43.57v-4.73h-1.19v-2.42h1.19v-2.55h2.83v2.55h2.35v2.42h-2.35v4.27c0,.65.28.97.91.97.52,0,.99-.13,1.4-.35v2.27c-.6.35-1.29.58-2.24.58-1.73,0-2.9-.69-2.9-3Z"/>
      <path class="cls-6" d="m264.15,41.42v-.04c0-3.33,2.18-5.16,4.54-5.16,1.51,0,2.44.69,3.11,1.49v-4.92h2.83v13.6h-2.83v-1.43c-.69.93-1.64,1.62-3.11,1.62-2.33,0-4.54-1.82-4.54-5.16Zm7.69,0v-.04c0-1.66-1.1-2.76-2.42-2.76s-2.44,1.08-2.44,2.76v.04c0,1.66,1.12,2.76,2.44,2.76s2.42-1.1,2.42-2.76Z"/>
      <path class="cls-6" d="m277.1,42.88v-6.46h2.83v5.57c0,1.34.63,2.03,1.71,2.03s1.77-.69,1.77-2.03v-5.57h2.83v9.98h-2.83v-1.42c-.65.84-1.49,1.6-2.92,1.6-2.14,0-3.39-1.42-3.39-3.71Z"/>
      <path class="cls-6" d="m294.66,33.36h2.64l6.11,8.03v-8.03h2.83v13.04h-2.44l-6.31-8.29v8.29h-2.83v-13.04Z"/>
      <path class="cls-6" d="m309,42.88v-6.46h2.83v5.57c0,1.34.63,2.03,1.71,2.03s1.77-.69,1.77-2.03v-5.57h2.83v9.98h-2.83v-1.42c-.65.84-1.49,1.6-2.92,1.6-2.14,0-3.39-1.42-3.39-3.71Z"/>
      <path class="cls-6" d="m320.68,36.41h2.83v1.41c.65-.84,1.51-1.6,2.94-1.6,1.3,0,2.29.58,2.81,1.58.87-1.02,1.92-1.58,3.28-1.58,2.1,0,3.37,1.27,3.37,3.67v6.5h-2.83v-5.57c0-1.34-.6-2.03-1.66-2.03s-1.71.69-1.71,2.03v5.57h-2.83v-5.57c0-1.34-.6-2.03-1.66-2.03s-1.71.69-1.71,2.03v5.57h-2.83v-9.98Z"/>
      <path class="cls-6" d="m337.89,41.46v-.04c0-2.85,2.03-5.2,4.94-5.2,3.33,0,4.86,2.59,4.86,5.42,0,.22-.02.48-.04.75h-6.95c.28,1.29,1.17,1.95,2.44,1.95.95,0,1.64-.3,2.42-1.02l1.62,1.43c-.93,1.15-2.27,1.86-4.08,1.86-3,0-5.22-2.1-5.22-5.16Zm7.04-.84c-.17-1.27-.91-2.12-2.1-2.12s-1.94.84-2.16,2.12h4.27Zm-1.19-8.6l2.44,1.06-2.42,2.24h-2.09l2.07-3.3Z"/>
      <path class="cls-6" d="m349.8,36.41h2.83v2.01c.58-1.38,1.51-2.27,3.19-2.2v2.96h-.15c-1.88,0-3.04,1.14-3.04,3.52v3.69h-2.83v-9.98Z"/>
      <path class="cls-6" d="m357.64,32.8h2.98v2.51h-2.98v-2.51Zm.07,3.61h2.83v9.98h-2.83v-9.98Z"/>
      <path class="cls-6" d="m370.42,44.96c-.69.93-1.64,1.62-3.11,1.62-2.33,0-4.54-1.82-4.54-5.16v-.04c0-3.33,2.18-5.16,4.54-5.16,1.51,0,2.44.69,3.11,1.49v-1.3h2.83v12.96h-2.83v-4.41Zm.04-3.54v-.04c0-1.66-1.1-2.76-2.42-2.76s-2.44,1.08-2.44,2.76v.04c0,1.66,1.12,2.76,2.44,2.76s2.42-1.1,2.42-2.76Z"/>
      <path class="cls-6" d="m375.71,42.88v-6.46h2.83v5.57c0,1.34.63,2.03,1.71,2.03s1.77-.69,1.77-2.03v-5.57h2.83v9.98h-2.83v-1.42c-.65.84-1.49,1.6-2.92,1.6-2.14,0-3.39-1.42-3.39-3.71Z"/>
      <path class="cls-6" d="m386.9,41.46v-.04c0-2.85,2.03-5.2,4.94-5.2,3.33,0,4.86,2.59,4.86,5.42,0,.22-.02.48-.04.75h-6.95c.28,1.29,1.17,1.95,2.44,1.95.95,0,1.64-.3,2.42-1.02l1.62,1.43c-.93,1.15-2.27,1.86-4.08,1.86-3,0-5.22-2.1-5.22-5.16Zm7.04-.84c-.17-1.27-.91-2.12-2.1-2.12s-1.94.84-2.16,2.12h4.27Z"/>
    </g>
    <g>
      <path class="cls-6" d="m82.29,68.4c-.53,0-.96-.43-.96-.96V8.02c0-.53.43-.96.96-.96s.96.43.96.96v59.42c0,.53-.43.96-.96.96"/>
      <path class="cls-6" d="m31.1,8.17s-.02.11-.04.15c.02,0,.05.01.07.02.14-.11.43-.38.43-.38-.04.02-.1.04-.15.06-.03-.04-.07-.08-.1-.12q.07-.18.08-.21s-.05-.01-.07-.02c0,0,0-.02-.01-.03-.12.2-.23.4-.32.6.03-.02.07-.04.11-.06"/>
      <path class="cls-6" d="m31.52,7.73s.03-.04.04-.06c-.01-.02-.03-.05-.04-.07,0-.02.02-.05.03-.06.04,0,.1.03.14.05.08-.03.13-.1.2-.14q-.02.08-.27.39s.07.07.11.08c.04-.02.09-.04.13-.05-.02.02-.03.05-.05.07.02,0,.05,0,.07-.01.02.04.06.08.1.09q.1-.11.06-.36s-.09-.04-.13-.07q.17-.27.13-.61c-.12-.07-.12-.07-.02-.34-.25.28-.48.59-.68.91.06.05.1.11.16.17"/>
      <path class="cls-6" d="m32.73,15.96c.19-.29-.32-.79.1-.93.01-.02.02-.05.03-.07.21-.03.26-.04.14-.6-.06-.26.16-.45.17-.69q-.02-.15-.46-.46c-.25-.17-.67.03-.81-.37-.15-.43-.26-.45-.64-.51-.07-.12-.07-.13-.22-.22q-.01-.19-.03-.22s-.1,0-.14,0h0q-.21.12-.42-.16s-.02.01-.03.02c.19,1.68,1.01,3.16,2.22,4.21,0,0,0,0,0-.01.02,0,.05,0,.07,0"/>
      <path class="cls-6" d="m32.84,6.4c.06,0,.1-.05.15-.05,0,0,0,0,.01.01-.05.03-.07.05-.08.09t.05.08l.17-.16s0,0,0-.01c0-.01,0-.03,0-.04.06-.05.06-.05.06-.07l.05-.08.31-.35h0s.17-.03.29-.08c.13-.06.21-.21.36-.24.13-.03.27-.06.47-.22,0,0,0-.02,0-.02,0,0-.11-.01-.16-.03q.08-.1.09-.1s0,.03,0,.04c.09.11.14.05.14.05.06-.07.01-.17.05-.24.02-.05.03-.1.06-.14.03-.03.08-.02.1-.07,0,0,0-.01,0-.02,0,0,0-.01,0-.02-.78.24-1.5.63-2.13,1.13-.02.23-.02.23-.04.26-.06.11,0,.26,0,.29"/>
      <path class="cls-6" d="m34.45,5.96s.03.07.05.17c.21.05.23.05.26.04.1-.04.11-.05.13-.07.01,0,.03-.03.03-.05.02-.03.02-.03.09-.13,0,0,0,0,0,0-.06-.14-.08-.14-.11-.14-.02,0-.08,0-.2.05-.07.03-.12.05-.15-.04-.13,0-.19.05-.2.08-.01.06.06.06.08.09"/>
      <path class="cls-6" d="m38.73,9.33s.02-.02.03-.02c0,0,0-.02,0-.03,0-.01.02-.03.02-.04,0-.01,0-.01,0-.01h0s-.02,0-.03,0c-.02,0-.04,0-.05,0-.01,0-.07.03-.07.04-.04.02-.03.05-.03.05,0,0,.04.05.13,0"/>
      <path class="cls-6" d="m37.92,9.28s0,0,0,0c.02,0,.04.03.06.03,0,0,.02,0,.03-.01,0,0,0,0,0,0,.01,0,.02,0,.03,0h0s.04-.02.05-.03c0-.01-.01-.02-.02-.02,0,0,0,0,0,0,0,0,0,0-.01,0-.02,0-.04,0-.04,0,0,0-.01,0,0,0,0-.01,0-.02-.06-.02-.01,0-.01,0-.01,0,0,0,0,0,0,0,0,.01-.03,0-.05,0-.03-.01-.05.02-.05.03,0,0,0,0,0,0,.01,0,.04,0,.05,0"/>
      <path class="cls-6" d="m36.93,9.04s.03.02.04.03c0,0,0,0,.01,0,.01.01.03.01.05.02,0,0,0,0,0,0,0,0,.07.05.08.03,0,0,0-.05,0-.08,0-.01,0-.02,0-.03t.01-.08s0,0,0-.01c0,0-.02,0-.02.01t-.04,0s-.02.01-.03.02c0,0-.02,0-.03,0-.02,0-.02,0-.03,0,0,0,0,0,0,0,0,0-.05-.02-.05-.02-.02-.01-.03,0-.04,0,0,0,0,.02,0,.03,0,.01-.01.02-.02.03,0,0,0,0,0,0,.03,0,.05,0,.08,0"/>
      <path class="cls-6" d="m36.49,8.71s-.01.06,0,.08c0,.03.02.06.03.07.02.04.03.03.03.02,0-.01.01-.02.02-.03.01-.01.03-.02.04-.03,0-.01,0-.03,0-.04,0,0,0-.02,0-.03,0,0,0-.01,0-.01,0-.02-.03-.03-.04-.05,0-.02.02-.03,0-.05,0-.02-.02-.02-.03-.02-.02,0-.02,0-.04.02-.02.01-.02.01-.04,0-.03,0-.02.03-.02.03,0,.02.02.03.03.04"/>
      <path class="cls-6" d="m36.59,8.57s0-.02,0-.04c0,0,0-.02,0-.02,0,0,0-.02,0-.03,0-.01,0-.02,0-.03,0-.03-.03-.08-.03-.08,0,0,0,0-.01.02,0,.02,0,.02,0,.03,0,.01-.02.03-.03.04,0,.02-.01.03-.01.03,0,.02.02.06.02.06.01.02.06.03.07.02"/>
      <path class="cls-6" d="m39.79,13.93l-.09.06c-.07.06-.08.15-.16.21-.09.06-.11.07-.16.07-.02,0-.06,0-.13.11,0,0-.02.03,0,.12t-.07.15c-.03.05-.08.09-.11.14,0,0,0,0,0,.01,0,.03.01.06.01.09,0,.01,0,.02-.02.05-.02.03-.03.05-.02.06,0,0,.08.06.11.06.02,0,.16-.08.16-.08l.08-.13s.01-.05.02-.07c.02-.03.05-.05.07-.08.11-.14.13-.19.15-.23q.04-.09.08-.16s0-.06.01-.09c.02,0,.01.03.02.05h0l.06-.16v-.15s-.01-.03-.02-.03"/>
      <path class="cls-6" d="m42.22,11.89s0,0,0,0c-.02,0-.02,0,0,.04,0,.01.01.02,0,.03t-.02.03l-.04.17v.11s0,.01.05.03c.05-.05.06-.06.07-.09,0-.01,0-.05,0-.05,0,0,0-.11,0-.11s-.03-.15-.05-.15"/>
      <path class="cls-6" d="m39.15,13.3c.04-.07.05-.15.11-.21,0,0,.02,0,.03-.01,0,0,.1-.02.19-.14.06-.07.09-.15.15-.21.1-.1.24-.14.32-.26.08-.1.08-.12.14-.27.03-.08.09-.15.13-.22,0-.02.06-.16.06-.19,0-.04-.01-.13-.07-.09-.02.02-.03.04-.06.05,0,0-.41.12-.42.12-.01,0-.08-.1-.08-.1,0-.02,0-.03,0-.06,0-.08-.06-.11-.09-.17,0-.02-.06-.1-.13-.11-.03,0-.05,0-.08-.05t-.02-.1s-.25-.64-.28-.65t-.24-.55s.11-.06.16.02c.09.12.07.29.21.38.03.03.08.03.11.07.04.08.02.18.05.27,0,0,0,0,0,.01.22.32.23.34.3.72.02.07.05.11.08.11h0s0,0,0,0c.02-.04.07-.06.08-.07.05-.02.1,0,.14-.03.12-.08.29-.07.38-.21,0-.01,0-.04,0-.05.07-.06.22.03.26-.09.07-.21.29-.34.31-.58.01-.18-.21-.19-.24-.33,0-.02,0-.03,0-.03h0v-.02h0c-.12.05-.18.2-.33.21-.03-.07-.04-.15-.06-.22,0,0-.02,0-.02,0t-.03.1c-.09-.15-.14-.33-.23-.49,0,0,.08-.05.14-.04.04.12.21.49.51.3.12.05.16.27.33.19,0,0,.34-.02.39,0q.06.03.1.17s.04,0,.05,0q.12.11.17.06c-.03.05-.11.06-.09.14,0,0,.07.17.16.13.04-.02.04-.07.04-.13,0-.02,0-.04.02-.06,0,.02.01.04.02.06.02.42.02.44.13.86.02.05.02.07,0,.08,0,0-.01,0,0,.01.01.04.04.06.05.1.02.08.02.17.04.25,0,.01.01.05.03.07,0,0,.02,0,.04,0,0,0,0,0,.01-.01,0,0,.01-.02.02-.03,0-.01.03-.01.03-.03.01-.02.01-.04.02-.06.01-.02.03-.04.04-.07.01-.04,0-.08.01-.12.02-.04.05-.08.05-.13,0-.02,0-.04-.02-.07,0-.05-.02-.22.13-.29l.29-.58s.03.02.04.03c.08,0,.11-.09.16-.13q.09.27.12.32s-.02.05-.01.12c0,0,.01,0,.02-.01.07.1,0,.21.03.31,0,0,.02,0,.02,0,0-.01.02-.03.03-.05h0q.03-.05.04-.07s.02,0,.02,0c.06.11.01.23.02.35.01.1.02.19-.02.27,0,0,0,0,0,0,0,.04.02.07,0,.1-.02.05-.05.09-.06.15,0,.02.01.04.02.05,0,0,0,0,0,0,0,0,0,0,0,0,0,0,0,0,0,0,.02.03.04.1.03.2-.02.18,0,.34,0,.34,0,.06.05.1.07.15,0,0,.01,0,.04-.08,0,0,0,0,0,0,0,0,0,0,0,0-.01-.17-.02-.18.01-.28.02-.05.02-.05-.02-.16l-.05-.17-.02-.17c0-.05.07-.37.07-.38,0,0,.01,0,.02-.01,0,0,0,0,0,0,0,.05.01.07.01.08,0,.01.03.01.03.03.02.06.01.12.03.18,0,.01.02.01.02.02,0,.01-.01.02,0,.03.01.01.02,0,.03,0,.03,0,.01.03,0,.08-.05.11,0,.08.02.06,0,0,0,0,0,0,.02-.03.02-.06.04-.08,0,0,0,0,0,0,.04-.27.06-.55.06-.83-.03-.11-.05-.22,0-.34-.11-2.54-1.66-4.71-3.85-5.7.03.03.06.06.11.11,0,0-.01,0-.02.01-.12-.11-.15-.14-.16-.15,0,0,0,0-.01,0-.02,0-.03,0-.04.03.02.07.1.1.12.16t.05.18s0,.01,0,.02c-.03,0-.04,0-.08,0,0,0,.01,0,.02-.01q0-.07-.27-.43l-.05-.06c-.12-.05-.24-.09-.36-.13-.01.09.1.1.14.16.07.1.22.11.27.23-.01,0-.03,0-.03-.01-.15-.11-.58-.22-.59-.22,0,0,0,.01,0,.02.06.1.25.09.23.25,0,0-.01,0-.02,0-.03-.06-.03-.06-.06-.06-.05,0-.08.06-.13.07,0,.01-.01.03-.02.04,0,0-.01,0-.02,0,0-.02,0-.03,0-.06-.04-.04-.06-.05-.11.02,0,.01,0,.03,0,.04-.01,0-.03,0-.04,0,0,0-.01.02-.01.02,0,.01,0,.03,0,.04,0,.03.02.06.02.09,0-.03-.02-.05-.03-.08-.01.01-.03.02-.04.03,0,0,.01.03,0,.12-.08.02-.11.03-.16-.05,0-.02,0-.03.04-.06,0-.04-.08-.09-.08-.09-.04-.02-.08,0-.12,0t.07.07s0,0,.04.14t.1.12s-.08-.02-.12-.03c0,0-.07.08-.09.14q.07.1.07.13s-.01,0-.02,0c-.05-.03-.19-.1-.2-.1q-.04.05.11.15s0,.01,0,.02c0,0-.13.08-.22-.13l-.06-.12s-.07-.02-.1-.05t-.09-.1c.13.03.22.15.36.13.16-.02.15-.15.12-.19-.04-.05-.1-.07-.14-.12t-.05,0l-.39-.14s0-.03-.04-.06t-.01.04s0,0-.01.01c-.08-.01-.09-.02-.13-.04.03-.02.06-.03.08-.05-.03-.07-.08-.08-.17-.03t0-.05c-.06-.04-.07.02-.08.04t-.04-.01s0,.03-.02.04c0-.03.01-.07.01-.1,0,0,0,0,0,0-.05.02-.09.07-.15.08q-.03.06-.07.05s0,0-.01.01c0,0,0,.02,0,.03-.03,0-.07-.02-.1,0q0,.07-.03.09h0s-.05.01-.06.03c0,.02.01.04,0,.06,0,0-.01,0-.02,0,0,0,0-.02,0-.03-.05-.01-.05,0-.08.07,0,.01.01.02.01.03q-.11.05-.13.11s0,0,.17-.08c.02.04-.08.18-.08.18.01.1-.07.17-.09.25t-.05.03s.02,0,.03.01l-.09.14c-.09.01-.1.02-.11.1-.06.03-.13.04-.19.07,0,0,0,.01,0,.02t.01.08s.01,0,.02,0t-.03.08s.06.05.08.08c0,0,.01,0,.01,0,0,.03-.04.04-.06.07.02.04.04.05.06.05,0,0,0,.01,0,.01-.13.12.07.13.07.13.12,0,.21-.06.25-.18t.07.14c.02.05.03.11.07.16.03.04.03.04.03.06t.03,0s-.01.02-.02.03c0,.02.02.03.02.05,0,.01,0,.03,0,.04,0,0,.03.01.05.01.02,0,.04,0,.05-.04.02-.03.02-.03.04-.04.01,0,.03,0,.05,0,0,0,.02,0,.02,0,0,0,0,0,0,0,0,0,.01-.02.02-.04,0,0,0-.01,0-.06h0c0-.07-.04-.13-.02-.2.03-.07.14-.06.13-.16,0,0,0-.09-.11-.13t-.04-.23q.16-.17.19-.26c-.05-.05,0-.18.06-.18,0,0,.14,0,.14.04,0,.03-.11.26-.11.26-.02.02-.05.02-.07.04.01.27.07.31.19.37.01,0,.36-.06.37-.06,0,0,0,.02,0,.03.03.02.06.01.08.03,0,0,0,.01,0,.01q-.07.02-.07.02s-.02.02-.03.05c-.09,0-.18-.01-.27,0-.01.02,0,.04-.02.06q-.07,0-.08,0c0,.05,0,.13,0,.13l.15-.06s0,0,.01,0c0,.08.01.13,0,.15-.01,0-.02,0-.03.01,0,0,0,0,0,0-.03-.02-.04-.08-.09-.07-.05,0-.05.05-.07.08v.02c-.01.06.04.12.04.18t-.08.04c-.02.09-.12.01-.19.03-.09.02-.16.08-.24.12t-.06-.11c-.05,0-.15.08-.15.08,0-.01-.02-.03-.02-.05-.07-.01-.09-.02-.13-.09,0,0,.01-.01.02-.01q.17.09.21.02s-.01-.03,0-.09c-.09-.06-.1.03-.09.04,0,.01.03.02.04.03,0,0,0,.02,0,.02-.08.02-.11-.08-.09-.11.01-.02.03-.03.04-.05-.02-.01-.05-.02-.07-.05,0,0,0-.02,0-.03,0-.02.01-.04.02-.07,0-.01,0-.03-.01-.04-.02,0-.03,0-.07.04,0,.04-.03.04-.06.02-.02,0-.03.01-.04.04v.02s.02,0,.02,0v.03s-.01,0-.02.01t-.02.1s.03.02.06.05t.03.08s-.03.02-.04.02t.05.05s-.04.03-.06.04c-.03-.03-.21,0-.28.07-.12.11-.16.3-.34.36t-.03.06s-.08-.04-.12-.06c0,.03,0,.03.03.11-.08.05-.19-.05-.27.04,0,.02,0,.04,0,.05,0,0,.01.01.02.02.07,0,.13.07.2.03q0,.13.07.14-.05.31-.24.31-.43,0-.45.04c.03.09.04.1.04.21,0,.1-.08.16-.1.25-.01.08.13.17.04.23.06.01.11-.03.17,0,.06.02.05.11.13.11,0,0,.34-.11.35-.13q.05-.01.12-.14s.03-.01.04-.02t-.04-.06c0-.07.06-.13.13-.2.03-.04.09-.02.12-.06.03-.04,0-.08.02-.12q.04-.09.18-.09s.04.05.09.07c.08-.03.09-.15.19-.15q.06,0,.19.14c.22.25.35.27.38.27q.02.06.05.08s.01,0,.02,0c.1.06-.01.17.04.25.03,0,.13-.16.08-.2-.02-.02-.05-.05,0-.1q.06,0,.1.07s.01,0,.02,0c.01-.03.01-.03,0-.07-.09-.02-.23-.12-.23-.12,0-.01.02-.03.03-.04-.18-.07-.31-.12-.37-.31,0,0,0-.02.01-.02-.03-.13.08-.09.08-.09.03.03,0,.08.03.11.01,0,.03-.02.04-.03.09.04.11.17.22.17,0,0,.01.02.02.02,0,0,0,.01.01.02.05.06.13.06.19.12.06.06-.03.18.07.23h.01c.09.16.12.18.14.19,0,.18.08.2.14.2t.02.07s.01,0,.02,0c.02-.03.03-.06,0-.12.02-.01.05-.02.07-.03-.02,0-.05-.03-.07-.05,0,0,0-.01,0-.02t.07,0s0-.04-.01-.05c.03.02.05.05.08.06-.03-.13-.19-.17-.22-.3.04,0,.06.03.08.05.02-.02.04-.02.06-.04,0,0,0,0,0,0h0s-.02-.04-.03-.05c.07-.03.14,0,.21,0,0,0,0,.02-.01.02l.21-.08c-.04-.05-.11-.08-.13-.16-.02-.1.06-.18.05-.27.02,0,.04,0,.05,0t0-.08c.06-.02.06-.09.1-.13t.07,0s-.01.03-.01.05c.04.02.1,0,.14.03v.02q-.06.06-.07.07s.01.01.02.02c.01,0,.03,0,.04,0,.03.13.07.11.24,0,0-.02,0-.03.01-.04-.05,0-.09.02-.13.01-.1-.17.23-.22.27-.22-.02.05-.08.09-.08.09,0,0,0,.01,0,.02,0,0,.02,0,.02,0q-.02.08-.02.09s-.01.01-.02.02c0,0-.02,0-.03,0,0,0-.01.02-.02.03.04,0,.04.02.05.04.04.02.07.03.11.04q.26.19.3.25s0,.03,0,.05h0c-.05.11-.07.12-.14.07-.04,0-.07.03-.11.04l-.32-.14c-.17.02-.18.05-.21.11q-.16,0-.19.03s.03.02.04.03h.01s-.04.02-.06.02c0,0,0,.02,0,.03-.02,0-.05,0-.07,0-.03,0-.06,0-.09,0-.04.02-.04.03-.05.07v.04s.04,0,.06,0t-.04.12c.04.05.18.2.18.2q.06,0,.09,0s0,.02,0,.03c.06.03.08.02.13,0,0-.02.02-.04.03-.05.07,0,.08.09.15.09.08,0,.1-.03.14-.1t.1.02s.03-.02.05-.03c-.07.17.03.38-.11.54-.12.14-.28,0-.4.06-.08.04-.57-.14-.58-.14-.01,0-.27-.13-.24.09.02.12-.03.17-.08.2t-.29-.18s-.01-.11-.35-.18c-.06-.01-.15.04-.19-.04-.04-.08.06-.11.08-.16-.04-.08,0-.15,0-.22,0,0-.02,0-.03,0-.01.01-.03.03-.04.04,0,0-.53-.02-.68,0-.24.03-.46.36-.72.13-.02,0-.04,0-.05.02t-.03.13c-.18.09-.27.2-.27.2.01.01.02.04.02.05-.12.08-.07.25-.16.35-.1.12-.27.15-.37.28-.04.06-.05.13-.08.19-.03.07-.12.1-.14.18-.02.1.08.18.06.29-.02.15.08.29.01.44-.06.01-.09.02-.11.1.03.03.05.05.08.08h0c-.02.11-.01.12.03.18.06.09.17.12.23.2.07.08.08.2.14.28l.34.24s.06.03.12.02c.1,0,.18-.08.29-.09.1,0,.2.04.31.03.02,0,.09,0,.13-.03.13-.09.28-.12.28-.11.11.02.1.18.22.2.1.02.18-.08.29-.03,0,0,.08.06.09.12q-.09.15-.11.34s-.03.03-.04.04q.08.17.23.3l.16.34v.34c-.02.13-.13.21-.18.32-.02.04-.04.14-.03.16.04.11.14.17.18.27.06.14-.03.28,0,.42,0,0,.04.14.12.23.08.09.06.22.1.33-.01,0-.03.02-.05.03,0,.05,0,.09,0,.14,0,0,.01.01.02.02,0,0,.02,0,.03,0,0,0,.44.02.69-.16.06-.05.34-.36.34-.36l.38-.49q-.02-.22.42-.48.1-.06.13-.18s0-.02,0-.03c0-.07,0-.14.02-.21,0-.04.02-.07.02-.11,0,0,0-.02-.02-.05t-.01-.08q.01-.24,0-.26m-1.12-7.05s-.02,0-.02.01c0,0-.01.02-.02.03,0,0-.01,0-.02,0,0,0-.01,0-.02-.01,0,0,0,0,0,0,0-.01-.01-.03-.02-.05,0,0,0,0-.02-.03,0,0-.05-.06-.05-.06,0,0,0,0,0-.01-.01-.03.02-.06.02-.06,0,0,.01-.01.03,0,0,0,0,0,0,0,.01,0,.02.02.05.03.02.01.03.02.06.05.02.02.03.08.03.08,0,0,0,0,0,.01m.17-.09s-.03-.01-.03-.02c0-.01-.01-.02-.02-.03-.02-.02-.03-.03-.05-.05,0,0,0,0,0,0,0-.01,0-.02-.01-.04,0,0-.02-.02-.02-.03,0,0,0,0,0-.01h0s.01.01.02.02c0,0,.01,0,.02,0,0,0,.05,0,0-.05-.02-.02-.03-.03-.05-.04,0,0,.07-.03.11.07,0,0,0,.02.05.06,0,0,.03.03.04.08,0,.01-.02.03-.03.04m2.17,1.74s0,0,.01,0c.01,0,.02,0,.02,0,0,0,0-.02.02-.03,0,0,.02-.01.03-.02.01,0,.01-.02.01-.04,0-.02,0-.03,0-.03,0,0,0,0,0,0,0,0,0,0,0,0,0,.02,0,.04,0,.06,0,.02.02.03.03.05,0,0,0,.02,0,.02.01.11.01.11,0,.12,0,0,0,0-.01.01h-.08s-.03,0-.05-.06c-.03-.08-.02-.09,0-.1m-.78.05s.04-.04.06-.06c.02-.02.03-.05.04-.07,0,0,.09-.06.1-.06,0,0,.02,0,.03,0q.09,0,.1,0s.1.15.04.2c-.04.03-.08-.03-.11,0,0,.03.05.08.02.08h-.03c.07.14.08.15.12.16.05.02.08.05.08.05.02.03,0,.06.02.1.01.03.04.05.05.08,0,.01,0,.01.01.04,0,.01.02.06.05.11.01.02.01.02.02.02,0,0,0,0,0,0,.03.01.03.04.03.04,0,.02-.02.02-.02.04.07.08.08.19.14.27,0,0,0,0,0,0-.02,0-.22.01-.23.01,0,0-.17-.09-.17-.09-.06-.05-.08-.24-.04-.31.01-.02.04-.03.05-.05,0-.02,0-.02-.07-.04-.01,0-.02,0-.02-.01-.03-.03-.04-.08-.06-.11-.02-.03-.06-.03-.08-.06-.03-.05-.02-.11-.06-.15-.02-.03-.07-.03-.08-.08s0-.09.02-.14"/>
      <path class="cls-6" d="m35.06,7.15s0,.01,0,.02c-.02.02-.02.04-.02.04,0,0,0,.01.02.01.02,0,.02,0,.03.03h0s0,0-.01,0c-.02,0-.09.12-.09.13,0,0,.01.04.04.06,0,0,.03.02.05.01.01,0,.03-.01.05-.04.04-.04.07-.04.09-.06.01,0,.02,0,.03,0,.02,0,.06,0,.07,0,.02-.02,0-.03,0-.05,0-.02.01-.03.02-.05h0s0-.06-.02-.09c0,0,0,0,0,0,.03,0,.05-.01.06-.03.01-.03-.02-.11-.03-.12-.01-.02-.05-.02-.06-.02-.02,0-.04.03-.07,0-.01,0-.04.03-.04.05t-.03.05s-.03.02-.05.02c0,0-.01,0-.01,0,0,0-.01-.02-.04,0-.01.01-.02.01-.02.01,0,0,0,0,0,0,.02,0,.03,0,.03,0"/>
      <path class="cls-6" d="m35.28,6.8s.04-.03.06-.03c0,.02,0,.05,0,.08,0,.01.02.02.03.03-.04.06-.03.07-.03.08.02,0,.03-.02.05-.02-.01.04,0,.05,0,.05q.05-.05.07-.05t-.03.1s.06,0,.09.01c0,.05.01.07.02.07,0,.02.03.01.04.03,0,.02-.03.11-.08.11-.04,0-.06.03-.06.03,0,.01,0,.03.02.03.02.01.03.02,0,.05-.03.02-.1.03-.08.07.03,0,.07-.04.09,0,.01.02.02.03.08.01t.04-.01s0,0,0,0c0,.01-.04.04-.08.05-.11.01-.19.11-.19.11,0,.02.02.04.03.04.04,0,.05-.04.08-.05.03,0,.05.01.07,0,0,0,0,0,0,0,0,0,0,0,0,0,0,0,0,0,0,0q.06-.03.06-.03s.08.03.12.02c0-.02-.02-.04,0-.06.03-.02.07,0,.1,0q.09,0,.12-.05s0,0,0,0c-.02-.01-.04-.02-.06-.02.16-.19-.01-.17-.02-.17-.02,0-.03,0-.03,0,0-.02,0-.03,0-.04,0-.03-.03-.05-.04-.08,0,0,0,0,0,0t-.06-.08s-.03-.06-.04-.08c-.03-.05-.04-.05-.05-.05-.02,0-.03,0-.04-.01,0-.07.11-.08.08-.16-.02-.07-.11,0-.14-.05.02-.05.12-.1.06-.15-.03,0,0,.06-.04.05h-.08s0,.07-.03.1c-.03.04-.05.05-.07.01-.02-.04.03-.06.03-.1-.01,0-.05.01-.07.04-.07.1-.06.11-.06.13,0,.01.02.02.02.02"/>
      <path class="cls-6" d="m43.07,13.39s.02-.04.05-.14c.05-.15.04-.19.03-.34,0-.03,0-.07.02-.09,0,0,0-.01-.02-.04-.03-.05-.01-.11-.05-.16,0,0,0,0,0-.01,0,0-.05-.24-.05-.25-.01,0-.01.02-.03.03-.05-.02-.02-.08-.05-.11,0,0-.06.06-.06.07l.06.2q.04.13.05.14s-.02.09-.02.13c0,.05.03.09.03.14,0,.04-.03.07-.05.11,0,.01-.01.04.02.1.02.05.03.24.03.25t.05-.03s0,0,0,0"/>
      <path class="cls-6" d="m36.96,17.67c-3.67,0-6.66-2.99-6.66-6.66s2.99-6.66,6.66-6.66,6.66,2.99,6.66,6.66-2.99,6.66-6.66,6.66m0-13.17c-3.59,0-6.51,2.92-6.51,6.51s2.92,6.51,6.51,6.51,6.51-2.92,6.51-6.51-2.92-6.51-6.51-6.51"/>
      <path class="cls-6" d="m30.44,57.53c-.17-.18-.12-.77,0-.88.83-.06,1.95-.23,2.66-.41,1.47-.3,1.71-1.18,1.83-2.54.12-1.42.18-11.6.18-16.5,0-4.42,0-9.01-.12-11.73-.18-1.42-.12-2.66-1.47-3.01-.65-.17-1.77-.35-3.19-.53-.17-.12-.05-.76.06-.88h12.51c.13.17.18.7.06.88-.89.13-1.88.24-2.42.36-1.31.35-1.54,1.23-1.65,3.06-.12,2.47-.18,8.37-.18,13.5,0,5.54.06,12.08.12,14.03.12,1.82.29,2.82,1.77,3.24.83.24,1.89.41,3.01.53.17.18.05.77-.06.88h-13.1Z"/>
      <path class="cls-6" d="m74.46,57.53c-2.07.12-6.2-.18-7.97-.95-.83-.35-1.65-.94-2.71-2.18-2.25-2.41-6.32-9.37-8.68-12.55-.47-.72-.95-.95-1.36-.95-.65-.03-4.05,0-5.12.04v-1.66c1.99.13,6.69.15,7.83-.26,2.01-.7,4.72-2.77,4.72-7.84,0-1.25-.17-2.36-.48-3.37-.79-3.62-4.72-6.69-13.47-6.69,1.79-.02,7.19-.02,7.81-.02,6.66,0,9.91,4.12,9.91,8.89,0,5.2-3.54,7.96-6.84,9.43-.13.12-.13.23-.06.3,2.29,3.71,7.2,10.85,9.91,13.55,2.83,2.83,3.9,3.13,6.61,3.36.06.11,0,.83-.11.88"/>
      <path class="cls-6" d="m3.72,21.05c-.12.12-.18.76,0,.88.76.12,2.3.29,2.95.53,1.3.48,1.3,1.65,1.36,3.19.12,3-.05,18.56.35,22.03.82,7.14,5.42,9.94,13.69,9.94.77,0,1.54-.05,2.31-.12-6.64-.14-12.01-4.6-12.3-11.19-.06-.56-.12-1.14-.17-1.8-.12-3.12-.18-13.91,0-18.74.12-2.48.41-2.95,1.42-3.3.7-.24,1.3-.29,2.48-.53.12-.12.12-.76,0-.88H3.72Z"/>
      <path class="cls-6" d="m36.96,4.52c1.71,0,3.33.66,4.56,1.84,1.26,1.22,1.97,2.85,1.99,4.6.03,1.75-.63,3.4-1.85,4.66-.63.65-1.37,1.15-2.19,1.49-.8.33-1.65.5-2.52.5-1.71,0-3.33-.66-4.56-1.84-1.26-1.21-1.96-2.85-1.99-4.59-.03-1.75.63-3.4,1.85-4.66.63-.65,1.37-1.15,2.2-1.49.8-.33,1.65-.5,2.52-.5m0-.18c-1.76,0-3.51.68-4.83,2.04-2.58,2.66-2.52,6.91.15,9.49,1.3,1.26,2.99,1.89,4.68,1.89s3.51-.68,4.83-2.04c2.58-2.66,2.52-6.91-.15-9.49-1.31-1.26-2.99-1.89-4.68-1.89"/>
    </g>
    <g>
      <path class="cls-6" d="m94.04,60.4v-.02c0-2.47,1.86-4.49,4.53-4.49,1.64,0,2.62.55,3.42,1.34l-1.22,1.4c-.67-.61-1.35-.98-2.22-.98-1.46,0-2.52,1.22-2.52,2.71v.02c0,1.49,1.03,2.73,2.52,2.73.99,0,1.6-.4,2.28-1.02l1.22,1.23c-.89.96-1.89,1.55-3.56,1.55-2.56,0-4.45-1.97-4.45-4.47Z"/>
      <path class="cls-6" d="m102.95,60.4v-.02c0-2.47,1.95-4.49,4.63-4.49s4.6,2,4.6,4.47v.02c0,2.47-1.95,4.49-4.63,4.49s-4.6-2-4.6-4.47Zm7.23,0v-.02c0-1.49-1.09-2.73-2.63-2.73s-2.6,1.22-2.6,2.71v.02c0,1.49,1.09,2.73,2.63,2.73s2.6-1.22,2.6-2.71Z"/>
      <path class="cls-6" d="m113.88,56.04h1.91v6.95h4.33v1.74h-6.24v-8.68Z"/>
      <path class="cls-6" d="m121.56,56.04h1.91v6.95h4.33v1.74h-6.24v-8.68Z"/>
      <path class="cls-6" d="m129.24,56.04h6.55v1.7h-4.65v1.76h4.09v1.7h-4.09v1.82h4.71v1.7h-6.61v-8.68Z"/>
      <path class="cls-6" d="m137.17,60.4v-.02c0-2.47,1.92-4.49,4.55-4.49,1.56,0,2.51.42,3.41,1.19l-1.2,1.45c-.67-.56-1.27-.88-2.27-.88-1.39,0-2.49,1.23-2.49,2.71v.02c0,1.59,1.09,2.75,2.63,2.75.69,0,1.31-.17,1.8-.52v-1.24h-1.92v-1.65h3.77v3.77c-.89.76-2.12,1.38-3.71,1.38-2.7,0-4.56-1.9-4.56-4.47Z"/>
      <path class="cls-6" d="m147.29,56.04h6.55v1.7h-4.65v1.76h4.09v1.7h-4.09v1.82h4.71v1.7h-6.61v-8.68Z"/>
      <path class="cls-6" d="m158.94,60.4v-.02c0-2.47,1.95-4.49,4.63-4.49s4.6,2,4.6,4.47v.02c0,2.47-1.95,4.49-4.63,4.49s-4.6-2-4.6-4.47Zm7.23,0v-.02c0-1.49-1.09-2.73-2.63-2.73s-2.6,1.22-2.6,2.71v.02c0,1.49,1.09,2.73,2.63,2.73s2.6-1.22,2.6-2.71Z"/>
      <path class="cls-6" d="m169.87,56.04h6.61v1.74h-4.7v1.85h4.14v1.74h-4.14v3.36h-1.91v-8.68Z"/>
      <path class="cls-6" d="m181.73,56.04h6.55v1.7h-4.65v1.76h4.09v1.7h-4.09v1.82h4.71v1.7h-6.61v-8.68Z"/>
      <path class="cls-6" d="m190.05,56.04h1.76l4.07,5.35v-5.35h1.89v8.68h-1.62l-4.21-5.52v5.52h-1.89v-8.68Z"/>
      <path class="cls-6" d="m199.46,60.4v-.02c0-2.47,1.92-4.49,4.55-4.49,1.56,0,2.51.42,3.41,1.19l-1.2,1.45c-.67-.56-1.27-.88-2.27-.88-1.39,0-2.49,1.23-2.49,2.71v.02c0,1.59,1.09,2.75,2.63,2.75.69,0,1.31-.17,1.8-.52v-1.24h-1.92v-1.65h3.77v3.77c-.89.76-2.12,1.38-3.71,1.38-2.7,0-4.56-1.9-4.56-4.47Z"/>
      <path class="cls-6" d="m209.66,56.04h1.91v8.68h-1.91v-8.68Z"/>
      <path class="cls-6" d="m213.75,56.04h1.76l4.07,5.35v-5.35h1.89v8.68h-1.62l-4.21-5.52v5.52h-1.89v-8.68Z"/>
      <path class="cls-6" d="m223.55,56.04h6.55v1.7h-4.65v1.76h4.09v1.7h-4.09v1.82h4.71v1.7h-6.61v-8.68Z"/>
      <path class="cls-6" d="m231.86,56.04h6.55v1.7h-4.65v1.76h4.09v1.7h-4.09v1.82h4.71v1.7h-6.61v-8.68Z"/>
      <path class="cls-6" d="m240.18,56.04h3.97c1.1,0,1.96.31,2.53.88.48.48.74,1.17.74,1.98v.03c0,1.4-.76,2.28-1.86,2.69l2.12,3.1h-2.23l-1.86-2.78h-1.5v2.78h-1.91v-8.68Zm3.85,4.22c.93,0,1.46-.5,1.46-1.23v-.02c0-.82-.57-1.24-1.5-1.24h-1.9v2.49h1.94Z"/>
      <path class="cls-6" d="m249.24,56.04h1.91v8.68h-1.91v-8.68Z"/>
      <path class="cls-6" d="m253.32,56.04h1.76l4.07,5.35v-5.35h1.89v8.68h-1.62l-4.21-5.52v5.52h-1.89v-8.68Z"/>
      <path class="cls-6" d="m262.74,60.4v-.02c0-2.47,1.92-4.49,4.55-4.49,1.56,0,2.51.42,3.41,1.19l-1.2,1.45c-.67-.56-1.27-.88-2.27-.88-1.39,0-2.49,1.23-2.49,2.71v.02c0,1.59,1.09,2.75,2.63,2.75.69,0,1.31-.17,1.8-.52v-1.24h-1.92v-1.65h3.77v3.77c-.89.76-2.12,1.38-3.71,1.38-2.7,0-4.56-1.9-4.56-4.47Z"/>
      <path class="cls-6" d="m281.41,63.88c-.71.58-1.54.97-2.54.97-1.66,0-2.92-.97-2.92-2.51v-.02c0-1.1.6-1.89,1.69-2.38-.42-.6-.61-1.14-.61-1.74v-.02c0-1.19.96-2.28,2.63-2.28,1.48,0,2.44.97,2.44,2.18v.03c0,1.17-.74,1.85-1.82,2.27l1.15,1.15c.29-.45.57-.96.84-1.49l1.4.77c-.33.61-.71,1.25-1.14,1.84l1.28,1.28-1.4.98-1-1.02Zm-1.07-1.09l-1.66-1.69c-.57.3-.81.72-.81,1.14v.03c0,.61.51,1.02,1.22,1.02.43,0,.86-.19,1.25-.5Zm.1-4.58v-.03c0-.5-.33-.81-.82-.81-.51,0-.84.36-.84.88v.02c0,.38.15.67.51,1.08.76-.29,1.15-.61,1.15-1.15Z"/>
      <path class="cls-6" d="m291.91,55.98h1.76l3.72,8.75h-2l-.79-1.95h-3.67l-.79,1.95h-1.95l3.72-8.75Zm2.01,5.11l-1.15-2.82-1.15,2.82h2.31Z"/>
      <path class="cls-6" d="m298.73,56.04h3.97c1.1,0,1.96.31,2.53.88.48.48.74,1.17.74,1.98v.03c0,1.4-.76,2.28-1.86,2.69l2.12,3.1h-2.23l-1.86-2.78h-1.5v2.78h-1.91v-8.68Zm3.85,4.22c.93,0,1.46-.5,1.46-1.23v-.02c0-.82-.57-1.24-1.5-1.24h-1.9v2.49h1.94Z"/>
      <path class="cls-6" d="m307.32,60.4v-.02c0-2.47,1.86-4.49,4.53-4.49,1.64,0,2.62.55,3.42,1.34l-1.22,1.4c-.67-.61-1.35-.98-2.22-.98-1.46,0-2.52,1.22-2.52,2.71v.02c0,1.49,1.03,2.73,2.52,2.73.99,0,1.6-.4,2.28-1.02l1.22,1.23c-.89.96-1.89,1.55-3.56,1.55-2.56,0-4.45-1.97-4.45-4.47Z"/>
      <path class="cls-6" d="m316.86,56.04h1.91v3.44h3.52v-3.44h1.91v8.68h-1.91v-3.49h-3.52v3.49h-1.91v-8.68Z"/>
      <path class="cls-6" d="m326.38,56.04h1.91v8.68h-1.91v-8.68Z"/>
      <path class="cls-6" d="m332.48,57.8h-2.64v-1.76h7.2v1.76h-2.64v6.92h-1.91v-6.92Z"/>
      <path class="cls-6" d="m338.5,56.04h6.55v1.7h-4.65v1.76h4.09v1.7h-4.09v1.82h4.71v1.7h-6.61v-8.68Z"/>
      <path class="cls-6" d="m346.43,60.4v-.02c0-2.47,1.86-4.49,4.53-4.49,1.64,0,2.62.55,3.42,1.34l-1.22,1.4c-.67-.61-1.35-.98-2.22-.98-1.46,0-2.52,1.22-2.52,2.71v.02c0,1.49,1.03,2.73,2.52,2.73.99,0,1.6-.4,2.28-1.02l1.22,1.23c-.89.96-1.89,1.55-3.56,1.55-2.56,0-4.45-1.97-4.45-4.47Z"/>
      <path class="cls-6" d="m358,57.8h-2.64v-1.76h7.19v1.76h-2.64v6.92h-1.91v-6.92Z"/>
      <path class="cls-6" d="m363.88,61v-4.96h1.91v4.91c0,1.41.71,2.15,1.87,2.15s1.87-.71,1.87-2.08v-4.97h1.91v4.9c0,2.63-1.48,3.92-3.81,3.92s-3.76-1.3-3.76-3.86Z"/>
      <path class="cls-6" d="m373.4,56.04h3.97c1.1,0,1.96.31,2.53.88.48.48.74,1.17.74,1.98v.03c0,1.4-.76,2.28-1.86,2.69l2.12,3.1h-2.23l-1.86-2.78h-1.5v2.78h-1.91v-8.68Zm3.85,4.22c.93,0,1.46-.5,1.46-1.23v-.02c0-.82-.57-1.24-1.5-1.24h-1.9v2.49h1.94Z"/>
      <path class="cls-6" d="m382.37,56.04h6.55v1.7h-4.65v1.76h4.09v1.7h-4.09v1.82h4.71v1.7h-6.61v-8.68Z"/>
    </g>
  </g>
  <g>
    <g>
      <g>
        <path class="cls-9" d="m322.88,80.07c.29.17.35.25.19.42-.9.98-1.99,1.66-3.27,2.02-.43.12-.87.18-1.31.24-.65.09-1.31.08-1.95-.04-1.55-.3-2.89-1.05-4.01-2.25-.76-.82-1.3-1.79-1.6-2.88-.21-.76-.34-1.53-.28-2.3.23-2.87,1.61-4.97,4.22-6.23.8-.38,1.65-.57,2.54-.61,1.98-.11,3.7.51,5.19,1.81.17.15.19.26,0,.41-.4.32-.78.66-1.18.97-.05.04-.22.04-.26-.01-.51-.51-1.09-.93-1.78-1.15-.45-.14-.92-.25-1.39-.28-1.48-.12-2.72.45-3.74,1.5-.73.74-1.2,1.63-1.41,2.66-.45,2.21.15,4.09,1.83,5.59.65.58,1.43.93,2.31,1.06,1.82.27,3.28-.38,4.48-1.72.15-.17.25-.15.47.08l.94.73Z"/>
        <path class="cls-9" d="m329.14,79.49c0-.99,0-1.98,0-2.97,0-.15.05-.2.2-.2.53,0,1.05,0,1.58.01.07,0,.19.12.19.19.01,1.98.01,3.96,0,5.93,0,.07-.12.19-.19.19-.53.02-1.06.01-1.6,0-.06,0-.17-.11-.17-.17-.01-1,0-2,0-3Z"/>
        <path class="cls-9" d="m330.11,74.82c-.27,0-.53.01-.8,0-.06,0-.17-.11-.17-.16-.01-.54-.01-1.07,0-1.61,0-.05.09-.14.14-.15.55-.01,1.1-.01,1.66,0,.06,0,.17.11.17.18.01.52.01,1.04,0,1.57,0,.06-.11.17-.18.18-.27.02-.54,0-.81,0Z"/>
      </g>
      <g>
        <path class="cls-6" d="m320.71,84.94h0c0-.34.25-.62.6-.62.22,0,.35.08.47.19l-.09.1c-.1-.1-.21-.16-.38-.16-.26,0-.46.21-.46.49h0c0,.28.2.5.46.5.16,0,.27-.06.39-.17l.09.09c-.12.13-.26.21-.48.21-.34,0-.6-.27-.6-.62Z"/>
        <path class="cls-6" d="m321.96,85.1h0c0-.25.19-.46.46-.46s.46.21.46.46h0c0,.25-.2.46-.46.46s-.46-.21-.46-.46Zm.79,0h0c0-.19-.14-.35-.33-.35s-.32.16-.32.34h0c0,.19.14.35.33.35s.33-.16.33-.34Z"/>
        <path class="cls-6" d="m323.16,84.66h.13v.15c.06-.09.14-.17.29-.17s.24.08.28.18c.06-.1.16-.18.31-.18.21,0,.33.13.33.36v.55h-.13v-.52c0-.17-.09-.27-.23-.27-.13,0-.24.1-.24.27v.51h-.13v-.52c0-.17-.09-.26-.23-.26s-.25.12-.25.28v.5h-.13v-.88Z"/>
        <path class="cls-6" d="m324.81,84.66h.13v.15c.06-.09.14-.17.29-.17s.24.08.28.18c.06-.1.16-.18.31-.18.21,0,.33.13.33.36v.55h-.13v-.52c0-.17-.09-.27-.23-.27-.13,0-.24.1-.24.27v.51h-.13v-.52c0-.17-.09-.26-.23-.26s-.25.12-.25.28v.5h-.13v-.88Z"/>
        <path class="cls-6" d="m326.46,84.32h.15v.14h-.15v-.14Zm0,.34h.13v.88h-.13v-.88Z"/>
        <path class="cls-6" d="m326.87,85.43l.07-.09c.1.07.2.11.31.11s.18-.05.18-.14h0c0-.09-.1-.13-.22-.16-.14-.04-.29-.08-.29-.25h0c0-.16.13-.26.3-.26.11,0,.23.04.32.1l-.06.1c-.08-.05-.17-.09-.26-.09-.1,0-.17.05-.17.13h0c0,.09.11.12.23.16.14.04.28.09.28.25h0c0,.17-.14.27-.31.27-.13,0-.27-.05-.37-.13Z"/>
        <path class="cls-6" d="m327.77,85.43l.07-.09c.1.07.2.11.31.11s.18-.05.18-.14h0c0-.09-.1-.13-.22-.16-.14-.04-.29-.08-.29-.25h0c0-.16.13-.26.3-.26.11,0,.23.04.32.1l-.06.1c-.08-.05-.17-.09-.26-.09-.1,0-.17.05-.17.13h0c0,.09.11.12.23.16.14.04.28.09.28.25h0c0,.17-.14.27-.31.27-.13,0-.27-.05-.37-.13Z"/>
        <path class="cls-6" d="m328.77,84.32h.15v.14h-.15v-.14Zm0,.34h.13v.88h-.13v-.88Z"/>
        <path class="cls-6" d="m329.22,85.1h0c0-.25.19-.46.46-.46s.46.21.46.46h0c0,.25-.2.46-.46.46s-.46-.21-.46-.46Zm.79,0h0c0-.19-.14-.35-.33-.35s-.32.16-.32.34h0c0,.19.14.35.33.35s.33-.16.33-.34Z"/>
        <path class="cls-6" d="m330.45,84.66h.13v.15c.06-.1.15-.17.3-.17.21,0,.34.14.34.35v.55h-.13v-.52c0-.16-.09-.27-.24-.27s-.27.11-.27.28v.51h-.13v-.88Z"/>
      </g>
      <g>
        <path class="cls-6" d="m312.96,87.4h0c0-.29.21-.46.42-.46.16,0,.27.09.34.19v-.53h.13v1.25h-.13v-.18c-.07.11-.17.2-.34.2-.21,0-.42-.17-.42-.46Zm.77,0h0c0-.21-.16-.34-.32-.34s-.31.13-.31.34h0c0,.21.14.34.31.34s.32-.14.32-.34Z"/>
        <path class="cls-6" d="m314.12,87.4h0c0-.26.18-.46.42-.46.26,0,.41.21.41.47,0,.02,0,.03,0,.04h-.7c.02.19.15.3.31.3.12,0,.21-.05.28-.12l.08.07c-.09.1-.2.17-.36.17-.24,0-.44-.19-.44-.46Zm.7-.05c-.01-.16-.1-.3-.28-.3-.16,0-.27.13-.29.3h.57Z"/>
        <path class="cls-6" d="m315.15,87.73l.07-.09c.1.07.2.11.31.11s.18-.05.18-.14h0c0-.09-.1-.13-.22-.16-.14-.04-.29-.08-.29-.25h0c0-.16.13-.26.3-.26.11,0,.23.04.32.1l-.06.1c-.08-.05-.17-.09-.26-.09-.1,0-.17.05-.17.13h0c0,.09.11.12.23.16.14.04.28.09.28.25h0c0,.17-.14.27-.31.27-.13,0-.27-.05-.37-.13Z"/>
        <path class="cls-6" d="m316.7,87.6v-.53h-.12v-.12h.12v-.27h.13v.27h.28v.12h-.28v.52c0,.11.06.15.15.15.05,0,.08,0,.13-.03v.11s-.1.04-.16.04c-.14,0-.25-.07-.25-.25Z"/>
        <path class="cls-6" d="m317.38,86.62h.15v.14h-.15v-.14Zm0,.34h.13v.88h-.13v-.88Z"/>
        <path class="cls-6" d="m317.91,87.6v-.53h-.12v-.12h.12v-.27h.13v.27h.28v.12h-.28v.52c0,.11.06.15.15.15.05,0,.08,0,.13-.03v.11s-.1.04-.16.04c-.14,0-.25-.07-.25-.25Z"/>
        <path class="cls-6" d="m318.59,86.95h.13v.23c.07-.15.19-.25.36-.25v.14h-.01c-.19,0-.35.14-.35.4v.35h-.13v-.88Z"/>
        <path class="cls-6" d="m319.22,87.4h0c0-.26.18-.46.42-.46.26,0,.41.21.41.47,0,.02,0,.03,0,.04h-.7c.02.19.15.3.31.3.12,0,.21-.05.28-.12l.08.07c-.09.1-.2.17-.36.17-.24,0-.44-.19-.44-.46Zm.7-.05c-.01-.16-.1-.3-.28-.3-.16,0-.27.13-.29.3h.57Z"/>
        <path class="cls-6" d="m320.24,87.73l.07-.09c.1.07.2.11.31.11s.18-.05.18-.14h0c0-.09-.1-.13-.22-.16-.14-.04-.29-.08-.29-.25h0c0-.16.13-.26.3-.26.11,0,.23.04.32.1l-.06.1c-.08-.05-.17-.09-.26-.09-.1,0-.17.05-.17.13h0c0,.09.11.12.23.16.14.04.28.09.28.25h0c0,.17-.14.27-.31.27-.13,0-.27-.05-.37-.13Z"/>
        <path class="cls-6" d="m321.7,87.4h0c0-.29.21-.46.42-.46.16,0,.27.09.34.19v-.53h.13v1.25h-.13v-.18c-.07.11-.17.2-.34.2-.21,0-.42-.17-.42-.46Zm.77,0h0c0-.21-.16-.34-.32-.34s-.31.13-.31.34h0c0,.21.14.34.31.34s.32-.14.32-.34Z"/>
        <path class="cls-6" d="m322.85,86.97c.09-.03.12-.08.11-.15h-.06v-.18h.16v.15c0,.14-.06.21-.19.23l-.02-.06Z"/>
        <path class="cls-6" d="m323.37,86.62h.15v.14h-.15v-.14Zm0,.34h.13v.88h-.13v-.88Z"/>
        <path class="cls-6" d="m323.85,86.95h.13v.15c.06-.1.15-.17.3-.17.21,0,.34.14.34.35v.55h-.13v-.52c0-.16-.09-.27-.25-.27s-.26.11-.26.28v.51h-.13v-.88Z"/>
        <path class="cls-6" d="m324.92,87.99l.06-.1c.1.07.21.11.34.11.2,0,.32-.11.32-.31v-.1c-.08.1-.19.19-.35.19-.21,0-.42-.16-.42-.41h0c0-.26.2-.42.42-.42.17,0,.27.08.35.18v-.16h.13v.73c0,.14-.04.24-.11.31-.08.08-.19.12-.34.12s-.28-.04-.4-.12Zm.72-.64h0c0-.18-.16-.3-.33-.3s-.31.12-.31.3h0c0,.18.14.3.31.3s.33-.12.33-.3Z"/>
        <path class="cls-6" d="m326.05,87.4h0c0-.26.18-.46.42-.46.26,0,.41.21.41.47,0,.02,0,.03,0,.04h-.7c.02.19.15.3.31.3.12,0,.21-.05.28-.12l.08.07c-.09.1-.2.17-.36.17-.24,0-.44-.19-.44-.46Zm.7-.05c-.01-.16-.1-.3-.28-.3-.16,0-.27.13-.29.3h.57Zm-.17-.77l.14.06-.19.18h-.1l.16-.25Z"/>
        <path class="cls-6" d="m327.15,86.95h.13v.15c.06-.1.15-.17.3-.17.21,0,.34.14.34.35v.55h-.13v-.52c0-.16-.09-.27-.25-.27s-.26.11-.26.28v.51h-.13v-.88Z"/>
        <path class="cls-6" d="m328.23,86.62h.15v.14h-.15v-.14Zm0,.34h.13v.88h-.13v-.88Z"/>
        <path class="cls-6" d="m328.66,87.4h0c0-.26.18-.46.42-.46.26,0,.41.21.41.47,0,.02,0,.03,0,.04h-.7c.02.19.15.3.31.3.12,0,.21-.05.28-.12l.08.07c-.09.1-.2.17-.36.17-.24,0-.44-.19-.44-.46Zm.7-.05c-.01-.16-.1-.3-.28-.3-.16,0-.27.13-.29.3h.57Z"/>
        <path class="cls-6" d="m329.75,87.5v-.55h.13v.52c0,.16.09.27.24.27s.27-.11.27-.28v-.51h.13v.88h-.13v-.15c-.06.1-.15.17-.3.17-.21,0-.34-.14-.34-.35Z"/>
        <path class="cls-6" d="m330.84,86.95h.13v.23c.07-.15.19-.25.36-.25v.14h0c-.19,0-.35.14-.35.4v.35h-.13v-.88Z"/>
      </g>
      <path class="cls-9" d="m328.23,80.51l-.42.22s-.05.02-.07.03c-.35.16-.7.35-1.11.24-.52-.14-.74-.61-.75-1.08-.02-1.13-.01-2.26,0-3.39,0-.05.1-.14.15-.14.66,0,1.32,0,1.97-.01.06,0,.16-.11.16-.16.01-.42,0-.84.01-1.26,0-.15-.04-.2-.19-.2-.63,0-1.27,0-1.9,0-.16,0-.22-.04-.22-.21,0-1.11,0-2.22,0-3.33,0-.18-.07-.21-.24-.21-.51.01-1.02,0-1.54,0-.15,0-.21.03-.21.2,0,1.11,0,2.23,0,3.34,0,.07-.13.19-.2.2-.39.02-.78,0-1.17.02-.06,0-.17.12-.18.18-.02.42-.02.83,0,1.25,0,.07.12.18.18.19.39.02.78.01,1.17,0,.15,0,.21.04.21.2,0,.6,0,1.19,0,1.79,0,.12,0,.23,0,.35.02.79-.05,1.59.17,2.37.31,1.12,1.3,1.72,2.28,1.71.48,0,.96-.18,1.43-.3.3-.08.45-.27.45-.56,0,0,0,0,0,0v-1.44Z"/>
    </g>
    <g id="cNyl8t">
      <g>
        <path class="cls-3" d="m389.04,88.04h-30.77c0-.1,0-.21,0-.31,0-1.72,0-3.43,0-5.15,0-3.15,0-6.29,0-9.44,0-.76,0-1.53,0-2.29,10.26,0,20.51,0,30.77,0,0,.08,0,.15,0,.23,0,5.58,0,11.16,0,16.73,0,.08,0,.15,0,.23Zm-19.92-5.5c-.33,0-.6,0-.86,0-.09,0-.23-.07-.25.1-.02.17.14.13.22.15.21.05.26.11.29.36,0,.07,0,.13,0,.2,0,.74,0,1.49,0,2.23,0,.45,0,.46-.44.61-.07.03-.08.07-.07.13,0,.05.03.09.09.09.49,0,.97,0,1.46,0,.06,0,.07-.05.08-.1,0-.05,0-.1-.06-.11-.06-.01-.11-.02-.17-.03-.25-.06-.29-.11-.3-.37,0-.3,0-.59,0-.89,0-.25.05-.29.3-.25.09.01.13.08.17.14.37.47.71.95,1.02,1.45.08.13.17.19.32.18.22-.01.44,0,.66,0,.07,0,.16.02.17-.09.01-.1-.04-.13-.13-.14-.28-.05-.48-.22-.63-.45-.09-.13-.18-.24-.27-.37-.18-.25-.36-.49-.54-.74-.06-.08-.05-.13.05-.17.14-.05.28-.12.41-.2.47-.3.59-1.3-.16-1.59-.09-.03-.18-.06-.27-.08-.38-.08-.76-.02-1.08-.05Zm13.7,3.89c.21,0,.42,0,.63,0,.28,0,.55,0,.83,0,.07,0,.16.02.17-.1.02-.32.04-.65.06-.97,0-.12-.08-.1-.16-.09-.07.01-.08.08-.11.12-.08.15-.16.3-.24.46-.1.19-.27.3-.48.3-.27,0-.53.01-.8,0-.25-.01-.32-.09-.33-.33-.01-.27,0-.53-.01-.8q0-.53.53-.48s.02,0,.03,0c.19.02.32.11.39.29.02.07.04.15.07.22.02.07.03.15.14.15.13,0,.12-.1.12-.19,0-.36,0-.73,0-1.09,0-.09.07-.23-.09-.26-.18-.04-.16.12-.19.22-.09.28-.2.37-.49.39-.1,0-.21,0-.31,0-.13,0-.19-.03-.19-.18,0-.38,0-.76,0-1.14,0-.12.03-.18.16-.17.27,0,.53.01.8.01.15,0,.25.07.35.17.12.13.22.26.28.43.03.09.09.11.18.1.1-.01.08-.09.08-.15,0-.19,0-.38,0-.57,0-.23,0-.24-.23-.24-.84,0-1.68,0-2.52,0-.09,0-.23-.07-.25.1-.02.16.14.13.22.16.29.09.32.11.32.42,0,.82,0,1.64,0,2.46q0,.41-.4.51s-.04,0-.06.01c-.07,0-.09.06-.08.12,0,.06.04.11.11.11.06,0,.11,0,.17,0,.44,0,.88,0,1.32,0Zm-21.08,0c.48,0,.95,0,1.43,0,.13,0,.19-.03.19-.17,0-.28.01-.55.05-.83,0-.05.03-.12-.05-.14-.08-.02-.15-.02-.19.07-.02.04-.04.09-.06.13-.07.13-.15.26-.22.4-.09.18-.25.26-.44.27-.28,0-.55.01-.83,0-.23,0-.27-.06-.32-.28-.06-.27-.02-.55-.03-.83,0-.57,0-.57.57-.5.2.02.34.12.4.31.03.08.05.16.07.25.02.09.09.08.16.08.07,0,.09-.05.09-.12,0-.42,0-.84,0-1.26,0-.08-.02-.13-.11-.13-.07,0-.13,0-.15.1,0,.03,0,.06-.01.08-.07.27-.23.43-.52.44-.11,0-.23,0-.34,0-.11,0-.16-.04-.15-.15,0-.4,0-.8,0-1.2,0-.12.04-.17.17-.17.22,0,.44,0,.66,0,.32,0,.53.17.68.43.03.05.06.1.08.15.03.11.1.16.21.14.11-.03.07-.12.07-.19,0-.17,0-.34,0-.52,0-.25,0-.25-.24-.25-.84,0-1.68,0-2.52,0-.05,0-.1,0-.14,0-.07,0-.11.03-.11.1,0,.06.02.11.09.12.04,0,.07.02.11.03.34.09.36.12.36.47,0,.79,0,1.58,0,2.38q0,.44-.43.55s-.02,0-.03,0c-.07,0-.1.05-.09.11,0,.07.03.11.1.11.06,0,.11,0,.17,0,.45,0,.9,0,1.35,0Zm2.49-2.1c0,.35,0,.71,0,1.06,0,.4.18.7.52.89.42.25.88.29,1.35.18.64-.16,1.01-.65.99-1.29-.03-.61,0-1.22,0-1.83,0-.39.07-.45.44-.55.03,0,.06-.02.08-.02.07,0,.09-.05.09-.12,0-.09-.05-.11-.13-.11-.02,0-.04,0-.06,0-.41,0-.82,0-1.23,0-.08,0-.18-.03-.19.11,0,.13.1.12.17.14.03,0,.06.01.08.02.29.07.38.16.4.44.05.7.04,1.41,0,2.12-.02.38-.25.65-.61.75-.39.1-.8.12-1.12-.23-.06-.06-.1-.14-.13-.22-.06-.15-.07-.3-.07-.45,0-.64,0-1.28,0-1.92,0-.41,0-.42.4-.53.08-.02.12-.05.12-.13,0-.1-.07-.1-.14-.1-.46,0-.92,0-1.37,0-.06,0-.12,0-.12.08,0,.07,0,.13.09.15.04,0,.07.02.11.03.25.08.3.14.3.41,0,.37,0,.74,0,1.12Zm12.53,2.1c.22,0,.44,0,.66,0,.06,0,.14.01.15-.08.01-.09-.02-.14-.12-.15-.27-.05-.4-.24-.49-.47-.25-.67-.51-1.33-.77-2-.14-.37-.29-.74-.43-1.12-.03-.08-.08-.12-.17-.12-.08,0-.13.03-.15.1-.01.05-.03.09-.05.13-.38.97-.76,1.93-1.13,2.9-.11.28-.25.52-.58.57-.08.01-.12.04-.11.13,0,.09.06.11.13.11.41,0,.82,0,1.23,0,.06,0,.11-.01.12-.09,0-.07,0-.13-.1-.14-.09-.01-.19-.03-.28-.06-.16-.05-.18-.11-.16-.28.03-.21.12-.4.18-.6.04-.13.11-.16.23-.16.22,0,.44,0,.66,0,.16,0,.35-.06.48.03.14.09.14.3.21.46.01.04.03.07.04.11.15.38.15.39-.25.5-.07.02-.12.04-.11.13,0,.09.06.11.13.11.22,0,.44,0,.66,0Zm4.03-3.18s0,0,0,0c0-.18,0-.36,0-.54,0-.15-.16-.24-.24-.13-.13.19-.23.07-.35.03-.9-.35-1.92-.01-2.34.9-.19.41-.25.84-.2,1.28.09.98.82,1.86,2.04,1.71.58-.07.97-.41,1.21-.93.03-.07.05-.14-.05-.18-.09-.04-.14-.03-.18.06-.03.07-.07.14-.11.2-.28.41-.65.6-1.15.52-.51-.08-.79-.43-.96-.88-.17-.44-.16-.89-.08-1.35.05-.32.15-.61.37-.85.29-.31.64-.44,1.06-.3.3.1.47.35.59.63.06.14.1.29.14.43.03.1.09.14.19.12.1-.02.07-.1.07-.16,0-.18,0-.36,0-.54Zm-11.56-2.67c0,.13,0,.27,0,.4,0,.09-.06.23.12.23.18,0,.13-.12.14-.22,0-.18,0-.36,0-.54,0-.18.12-.28.31-.29.15,0,.21.07.22.27,0,.22,0,.44,0,.66,0,.08.03.12.12.12.08,0,.13-.03.14-.11,0-.06,0-.11,0-.17,0-.18,0-.36,0-.54,0-.13.12-.22.28-.23.12-.01.22.05.25.19.01.06.01.13.01.2,0,.18,0,.36,0,.54,0,.07.01.13.11.13.08,0,.13-.03.13-.11,0-.28.01-.55-.01-.83-.02-.25-.22-.39-.46-.34-.08.01-.17.05-.24.09-.08.05-.14.07-.22,0-.11-.1-.26-.12-.4-.07-.1.04-.19.08-.32.03-.1-.05-.17.02-.17.15,0,.15,0,.31,0,.46Zm2.45,0h0c0,.17,0,.34,0,.52,0,.1.11.15.18.1.05-.03.05-.08.05-.13,0-.22,0-.44,0-.66,0-.19.26-.32.43-.24.09.05.11.13.11.22,0,.2,0,.4,0,.6,0,.09-.03.21.12.21.16,0,.12-.11.12-.2,0-.18,0-.36,0-.54,0-.19.13-.32.32-.32.14,0,.22.1.22.3,0,.21,0,.42,0,.63,0,.08.02.13.11.13.08,0,.13-.03.13-.11,0-.29.03-.57-.02-.86-.04-.23-.2-.34-.43-.32-.1,0-.19.04-.27.1-.08.06-.13.07-.22,0-.13-.12-.3-.13-.46-.05-.09.05-.16.05-.26,0-.09-.04-.16,0-.16.12,0,.16,0,.32,0,.49Zm-11.28-7.44c0,.24,0,.48,0,.72,0,.09.03.14.13.14.28,0,.55,0,.83,0,.09,0,.15-.03.15-.13,0-.1-.07-.09-.14-.09-.1,0-.21,0-.31,0-.45-.01-.39.1-.4-.41,0-.12.04-.17.16-.17.18,0,.36,0,.54,0,.09,0,.15-.03.15-.13,0-.1-.08-.09-.14-.09-.18,0-.36,0-.54,0-.15,0-.18-.06-.17-.19,0-.12-.02-.24.16-.23.19,0,.38,0,.57,0,.08,0,.12-.05.12-.13,0-.08-.04-.12-.12-.12-.29,0-.57,0-.86,0-.1,0-.13.04-.13.14,0,.23,0,.46,0,.69Zm5.43,7.49c0-.17,0-.34,0-.51,0-.05,0-.15-.06-.14-.21.03-.41-.1-.62-.04-.31.08-.5.43-.42.8.08.39.3.52.69.43.05-.01.1-.08.15,0,.03.05.01.11-.02.16-.06.1-.15.13-.26.14-.1,0-.19-.02-.28-.04-.06-.02-.14-.04-.15.06,0,.07,0,.13.07.16.43.2.9-.07.91-.55,0-.15,0-.3,0-.46Zm10.66-2.4c0-.13,0-.27,0-.4q0-.24-.26-.26s-.06,0-.08-.01c-.46-.19-.85.27-.77.75.07.4.31.55.7.45.04-.01.09-.07.13-.02.04.05.02.11,0,.16-.05.11-.15.14-.26.15-.11.01-.21-.02-.31-.05-.05-.01-.12-.03-.14.05-.01.06-.02.13.06.17.4.21.9-.06.92-.51,0-.16,0-.32,0-.49Zm-12.65-1.07c-.14,0-.29,0-.43,0-.07,0-.14,0-.14.1,0,.48,0,.95,0,1.43,0,.06.03.11.1.11.31,0,.61,0,.92,0,.07,0,.1-.05.1-.12,0-.08-.04-.1-.11-.1-.11,0-.23,0-.34,0-.42,0-.41,0-.39-.42,0-.13.06-.16.18-.15.18,0,.36,0,.54,0,.08,0,.13-.02.13-.11,0-.09-.04-.12-.12-.12-.19,0-.38,0-.57,0-.17,0-.15-.1-.15-.21,0-.11-.01-.21.15-.21.19,0,.38,0,.57,0,.08,0,.12-.05.12-.13,0-.08-.05-.09-.12-.09-.14,0-.29,0-.43,0Zm3.33,1.09c0-.15,0-.31,0-.46,0-.21,0-.21-.23-.23-.06,0-.11-.03-.17-.04-.31-.06-.58.1-.66.4-.07.25-.07.52.13.72.17.17.37.16.58.07.03-.01.07-.05.1,0,.02.03.02.07.01.11-.04.13-.13.2-.27.22-.11.01-.21,0-.31-.04-.05-.02-.12-.04-.15.03-.02.07-.03.15.08.19.12.04.24.05.37.04.33-.02.5-.2.52-.53,0-.16,0-.32,0-.49Zm-5.46-1.92s0-.02,0-.03c-.18-.49-.36-.98-.54-1.47-.04-.11-.12-.1-.21-.11-.11,0-.16.05-.19.14-.17.46-.33.93-.5,1.39-.02.05-.05.12.02.14.06.02.14.03.18-.04.03-.04.04-.08.06-.13q.11-.28.42-.28c.08,0,.15,0,.23,0,.09,0,.14.03.16.12.02.09.06.18.1.27.04.1.12.07.19.07.04,0,.07-.03.07-.07Zm4.27-2.74c0,.23,0,.46,0,.69,0,.08.01.15.12.16.13,0,.13-.08.13-.17,0-.05,0-.1,0-.14,0-.12,0-.16.16-.13.32.06.55-.07.65-.33.08-.22.09-.45,0-.67-.1-.24-.31-.35-.55-.28-.11.03-.21.07-.33.04-.12-.03-.17.03-.17.15,0,.23,0,.46,0,.69Zm2.34,1.93h0c0-.25,0-.5,0-.74,0-.08-.02-.13-.11-.13-.09,0-.11.05-.11.13,0,.06,0,.11,0,.17q0,.19-.19.16c-.29-.04-.5.08-.62.34-.07.16-.06.32-.05.48.04.4.33.58.71.44.07-.03.11-.05.19,0,.12.07.18.02.18-.14,0-.24,0-.48,0-.71Zm1.58-2.02s0,0,0,0c0-.12,0-.25,0-.37,0-.14-.06-.27-.18-.34-.23-.13-.48-.11-.72-.03-.08.02-.09.1-.07.17.02.08.09.06.14.05.06-.01.11-.04.17-.04.11-.01.23-.03.33.05.04.03.07.07.07.12,0,.07-.06.06-.11.06-.17.01-.34.03-.5.11-.17.09-.23.25-.19.47.03.16.17.27.35.28.1,0,.21.02.31-.04.07-.04.11-.05.2,0,.12.07.19.02.2-.13,0-.11,0-.23,0-.34Zm-1.25,7.22c0-.12,0-.25,0-.37,0-.16-.07-.28-.2-.35-.22-.11-.46-.08-.69-.02-.09.02-.06.11-.06.17,0,.09.08.06.13.05.08-.02.17-.04.25-.05.08,0,.17,0,.24.05.04.03.07.07.07.12,0,.06-.06.06-.11.07-.13.02-.27.03-.39.06-.17.05-.28.16-.3.34-.03.26.16.51.5.46.14-.02.27-.13.43-.03.07.04.14-.02.14-.12,0-.12,0-.25,0-.37Zm2.98-4.81c0-.13,0-.27,0-.4,0-.14-.07-.26-.2-.33-.22-.11-.46-.09-.69-.02-.09.03-.07.1-.06.17,0,.1.08.06.12.05.08-.01.17-.04.25-.05.08,0,.17,0,.25.04.04.03.07.07.07.12,0,.07-.06.06-.1.07-.1.02-.21.03-.31.05-.3.07-.44.24-.39.49.04.24.25.36.55.32.03,0,.06,0,.08-.02.09-.04.16-.06.26,0,.1.05.18,0,.17-.14,0-.11,0-.23,0-.34Zm-11.21,4.46c0,.23,0,.46,0,.68,0,.08,0,.15.11.16.12,0,.15-.06.14-.16,0,0,0-.02,0-.03,0-.12-.03-.27.02-.36.07-.13.24-.04.37-.07.28-.06.46-.28.44-.57-.01-.27-.19-.44-.49-.45-.15,0-.3,0-.46,0-.11,0-.15.04-.15.15,0,.22,0,.44,0,.66Zm8.05-6.7c-.09.04-.16.08-.25.1-.24.06-.43,0-.53-.16-.09-.15-.07-.2.11-.21.19,0,.38,0,.57,0,.1,0,.16-.02.17-.14.01-.34-.23-.59-.57-.57-.25.01-.48.19-.55.42-.09.31,0,.65.23.79.06.04.12.07.18.08.16.03.32.03.48-.01.16-.04.23-.11.17-.31Zm3.14,5.15c.12,0,.24,0,.36-.06.12-.05.13-.15.1-.23-.04-.1-.11.01-.16.02-.06,0-.11.04-.16.05-.25.04-.41-.03-.5-.22-.05-.12-.04-.15.09-.16.2,0,.4,0,.6,0,.14,0,.18-.07.17-.2-.02-.24-.14-.41-.34-.48-.24-.08-.49-.02-.65.17-.2.24-.2.51-.09.78.1.25.32.34.59.32Zm3.51,2.07c-.15.1-.29.14-.43.13-.16,0-.3-.06-.37-.22-.06-.13-.04-.17.11-.17.19,0,.38,0,.57,0,.18,0,.21-.05.18-.23-.04-.27-.18-.42-.43-.47-.25-.05-.51.07-.63.29-.16.29-.14.84.3.98.17.05.36.05.53,0,.18-.05.18-.05.16-.31Zm-4.85-2.06c.12,0,.25,0,.37-.08.09-.05.1-.15.06-.22-.04-.07-.1,0-.14.02-.13.05-.25.08-.39.06-.12-.02-.21-.07-.27-.18-.07-.13-.04-.2.11-.2.2,0,.4,0,.6,0,.1,0,.13-.04.13-.14,0-.27-.12-.48-.36-.55-.25-.08-.54.02-.67.24-.14.25-.16.51-.02.76.12.23.34.29.59.28Zm-3.88-2.41c.11.01.24-.02.36-.06.09-.03.14-.16.1-.23-.06-.09-.11.01-.17.02-.06,0-.11.04-.16.05-.24.04-.4-.02-.49-.19-.08-.14-.06-.18.1-.18.2,0,.4,0,.6,0,.08,0,.15-.02.15-.12-.01-.37-.2-.59-.55-.58-.35,0-.59.27-.59.66,0,.42.21.64.65.65Zm1.83,1.76c0,.14,0,.29,0,.43,0,.09-.03.2.12.2.15,0,.14-.1.14-.19,0-.2,0-.4,0-.6,0-.11.04-.18.14-.22.2-.08.43-.06.42.26,0,.16,0,.32,0,.49,0,.06,0,.11,0,.17.01.09.08.1.15.09.07,0,.1-.04.1-.11,0-.27.01-.53-.01-.8-.03-.3-.26-.44-.55-.36-.11.03-.22.08-.35.03-.11-.05-.17.03-.16.16,0,.15,0,.3,0,.46Zm7.23-2.45s0,0,0,0c0,.18,0,.36,0,.54,0,.09.05.14.15.13.09,0,.1-.07.1-.14,0-.21,0-.42,0-.63,0-.09,0-.17.1-.22.1-.05.2-.11.32-.05.13.06.13.17.13.29,0,.19,0,.38,0,.57,0,.09,0,.18.13.18.13,0,.13-.08.13-.17,0-.23,0-.46,0-.69-.02-.35-.25-.51-.59-.41-.1.03-.18.07-.29.02-.1-.05-.18,0-.18.14,0,.14,0,.29,0,.43Zm-10.74,2.44c0,.15,0,.31,0,.46,0,.08-.02.18.12.18.14,0,.14-.1.14-.2,0-.19,0-.38,0-.57,0-.18.12-.29.3-.3.16,0,.24.09.25.28,0,.21,0,.42,0,.63,0,.08,0,.15.12.15.1,0,.13-.06.13-.15,0-.25.01-.5,0-.74-.02-.32-.26-.47-.56-.38-.11.03-.19.09-.32.03-.1-.05-.18,0-.17.14,0,.15,0,.3,0,.46Zm-4.4.02c-.01.14.03.27.1.4.11.19.3.25.51.25.21,0,.39-.09.48-.3.1-.24.11-.48,0-.71-.09-.18-.24-.29-.45-.3-.38-.03-.63.24-.63.67Zm2.81,2.4c0,.31.13.54.36.62.22.08.44.06.61-.11.22-.22.23-.49.15-.77-.06-.22-.21-.36-.44-.4-.02,0-.04,0-.06,0-.38-.03-.63.24-.63.67Zm7.12-7.22c0,.14,0,.29,0,.43,0,.1-.01.2.14.2.14,0,.11-.11.11-.19,0-.2,0-.4,0-.6,0-.1.03-.16.11-.21.26-.15.45-.05.47.25.01.19,0,.38,0,.57,0,.08-.02.18.12.17.12,0,.11-.09.11-.16,0-.23,0-.46,0-.69-.01-.35-.24-.52-.58-.41-.1.03-.2.09-.32.02-.08-.04-.16,0-.16.13,0,.16,0,.32,0,.49Zm3.78,4.81c0,.16,0,.32,0,.49,0,.09.03.15.13.15.11,0,.12-.07.12-.15,0-.21,0-.42,0-.63,0-.11.04-.18.14-.22.25-.12.43-.02.45.26.01.2,0,.4,0,.6,0,.09.02.15.12.14.09,0,.1-.06.1-.14,0-.24,0-.48,0-.71,0-.35-.25-.52-.58-.41-.11.04-.2.08-.32.02-.08-.04-.17,0-.16.12,0,.16,0,.32,0,.49Zm-8.35-4.8c0-.34-.14-.56-.41-.65-.32-.1-.62.06-.72.38-.12.38.05.8.36.89.03,0,.06,0,.08.01.43.04.68-.19.68-.64Zm8.76,3.05c.37,0,.59-.24.59-.65,0-.4-.25-.67-.59-.66-.34,0-.58.26-.58.65,0,.46.26.69.58.67Zm11.3,7.85c.56.04.93-.48.92-.89,0-.52-.41-.93-.92-.93-.51,0-.89.4-.91.91-.01.43.38.93.91.9Zm-13.04.39c.23,0,.46,0,.68,0,.11,0,.16-.04.15-.15,0-.06,0-.11,0-.17,0-.1-.04-.13-.14-.13-.47,0-.93,0-1.4,0-.08,0-.12.04-.12.12,0,.06,0,.11,0,.17-.01.12.03.17.16.17.22,0,.44,0,.66,0Zm-9.7-11.27c0-.1.01-.21,0-.31-.02-.11.1-.31-.1-.32-.23-.01-.1.2-.11.31-.02.14,0,.29,0,.43,0,.19-.13.29-.33.3-.17,0-.24-.06-.25-.27,0-.21,0-.42,0-.63,0-.09-.02-.14-.13-.14-.11,0-.12.06-.12.15,0,.22,0,.44,0,.66.02.4.27.56.64.42.08-.03.14-.09.24,0,.08.07.17,0,.17-.13,0-.15,0-.31,0-.46Zm13.12,7.84s.06,0,.12,0c.21-.03.37-.18.38-.37.01-.17-.11-.31-.34-.37-.08-.02-.17-.04-.25-.06-.08-.02-.15-.06-.13-.15.01-.08.08-.13.16-.14.13-.02.24.02.36.06.05.02.1.09.14,0,.03-.07.03-.15-.05-.2-.18-.12-.56-.11-.73.03-.24.2-.19.5.1.61.11.04.22.05.33.08.08.02.14.06.14.16,0,.1-.08.12-.15.14-.17.02-.32,0-.47-.09-.09-.05-.12-.01-.12.07,0,.08.03.14.11.18.11.04.22.06.39.05Zm-14.32-2.95s0,0,0,0c0,.14,0,.29,0,.43,0,.07.04.1.11.1.06,0,.12,0,.13-.08.01-.06.01-.11.01-.17,0-.2,0-.4,0-.6,0-.12.02-.21.17-.2.08,0,.19.01.18-.12-.01-.13-.13-.07-.2-.09-.06-.01-.15.03-.17-.05-.01-.1.04-.19.14-.22.05-.02.11,0,.17,0,.06,0,.12,0,.13-.08,0-.08-.03-.13-.11-.14-.22-.03-.47.02-.54.3-.04.14-.05.32-.03.52.01.13,0,.27,0,.4Zm8.24-1.86s.02,0,.03,0c.09-.02.21.03.21-.13,0-.16-.12-.08-.19-.08-.14,0-.21-.06-.22-.2,0-.1,0-.21,0-.31q0-.29.29-.33s.02,0,.03,0c.07,0,.09-.05.09-.11,0-.06-.04-.08-.09-.08-.06,0-.11,0-.17,0-.12.01-.15-.04-.14-.15,0-.04,0-.08,0-.11,0-.09-.07-.1-.14-.1-.07,0-.11.03-.11.1,0,.12.02.25-.12.32-.02.01-.02.08.01.1.14.09.1.23.1.36,0,.13,0,.27.02.4.05.26.15.35.4.34Zm-6.1,0c.11.01.23-.01.34-.08.09-.05.09-.15.05-.23-.04-.07-.1,0-.14.03-.1.05-.2.06-.3.06-.08,0-.15-.03-.2-.09-.13-.14-.15-.48-.03-.64.11-.15.28-.18.51-.08.03.01.05.03.08.04.1.05.11-.02.11-.09,0-.07-.04-.12-.11-.15-.22-.11-.54-.08-.72.09-.19.17-.26.52-.16.8.08.22.29.35.58.36Zm-1.34,0c.11,0,.21-.01.31-.05.1-.04.13-.1.12-.2,0-.07-.03-.1-.11-.06-.06.04-.13.07-.21.08-.27.04-.44-.09-.46-.37,0-.05,0-.1,0-.14.03-.28.24-.42.5-.34.04.01.09.04.13.06.04.02.08.06.12,0,.03-.04.02-.09,0-.14-.01-.05-.05-.08-.09-.1-.22-.12-.54-.08-.72.08-.19.17-.26.52-.16.8.08.22.29.36.56.36Zm9.96,0s.04,0,.06,0c.09,0,.21,0,.2-.14,0-.15-.12-.07-.19-.08-.17-.01-.22-.05-.23-.22-.01-.16,0-.32,0-.49,0-.09.04-.14.13-.14.06,0,.11,0,.17,0,.08,0,.13-.03.13-.12,0-.08-.06-.08-.12-.08-.06,0-.11,0-.17,0-.09,0-.15-.02-.14-.13,0-.04,0-.08,0-.11,0-.08-.03-.12-.12-.13-.09,0-.11.05-.11.12,0,.12-.02.2-.13.3-.12.1.18.13.14.28-.02.05,0,.11,0,.17,0,.12,0,.25,0,.37.01.26.13.38.39.38Zm-10.56,4.15c0,.16,0,.32,0,.49,0,.1.02.17.14.16.11,0,.11-.08.11-.16,0-.18,0-.36,0-.54,0-.2.07-.28.25-.31.06-.01.13,0,.2,0,.07,0,.11-.02.11-.1,0-.08-.02-.13-.11-.13-.11,0-.21,0-.3.06-.06.04-.1.05-.18-.02-.11-.11-.22-.03-.22.13,0,.14,0,.29,0,.43Zm4.47,0s0,0,0,0c0,.17,0,.34,0,.51,0,.09.05.14.14.13.09,0,.1-.07.1-.14,0-.18,0-.36,0-.54,0-.22.08-.31.29-.33.06,0,.11,0,.17,0,.08,0,.09-.05.09-.11,0-.06-.02-.11-.09-.12-.1,0-.19-.01-.28.04-.08.04-.14.08-.23-.02-.09-.09-.19-.01-.2.12,0,.15,0,.3,0,.46Zm-2.98-7.2s0,0,0,0c0,.16,0,.32,0,.49,0,.09.04.14.14.14.09,0,.11-.06.11-.13,0-.18,0-.36,0-.54,0-.24.07-.32.31-.34.04,0,.08,0,.11,0,.08,0,.13-.01.13-.11,0-.11-.06-.13-.15-.12-.1,0-.19,0-.28.06-.05.03-.08.05-.16-.01-.13-.11-.22-.05-.23.12,0,.15,0,.31,0,.46Zm8.93,4.79c0,.16,0,.32,0,.48,0,.07-.01.16.1.17.12,0,.15-.06.15-.16,0-.18,0-.36,0-.54,0-.2.07-.28.26-.31.06-.01.11,0,.17,0,.06,0,.12.02.12-.07,0-.07.02-.16-.1-.16-.08,0-.17-.01-.25.03-.08.04-.14.09-.24-.01-.08-.09-.2,0-.2.12,0,.15,0,.3,0,.46Zm-7.69-2.38c0,.16,0,.32,0,.49,0,.09.02.15.13.14.1,0,.1-.07.1-.14,0-.18,0-.36,0-.54,0-.2.07-.29.27-.33.06-.01.13,0,.2,0,.08,0,.09-.04.09-.11,0-.06-.02-.11-.09-.12-.12,0-.23,0-.33.06-.07.05-.1.06-.17-.03-.08-.1-.2-.03-.2.1,0,.16,0,.32,0,.49Zm8.93,2.41c0-.16,0-.32,0-.48,0-.09-.02-.14-.13-.14-.09,0-.14.02-.14.13,0,.33,0,.67,0,1,0,.1.05.13.14.13.1,0,.13-.05.13-.14,0-.16,0-.32,0-.48Zm-6.05-.01h0c0,.16,0,.32,0,.48,0,.08,0,.15.12.15.1,0,.13-.06.13-.15,0-.32,0-.65,0-.97,0-.07-.01-.13-.11-.13-.09,0-.14.03-.14.13,0,.16,0,.32,0,.48Zm1.51-2.41s0,0,0,0c0-.15,0-.3,0-.46,0-.08-.01-.15-.12-.15-.1,0-.13.05-.13.14,0,.32,0,.65,0,.97,0,.07,0,.13.1.14.1,0,.14-.04.14-.13,0-.17,0-.34,0-.51Zm4.09,0c0,.17,0,.34,0,.51,0,.07.02.13.11.13.09,0,.12-.04.12-.12,0-.33,0-.67,0-1,0-.08-.02-.12-.11-.13-.09,0-.12.04-.12.12,0,.16,0,.32,0,.49Zm-4.08-.89c0-.12-.07-.15-.17-.14-.09,0-.1.06-.11.13,0,.1.04.13.14.13.09,0,.15-.03.14-.12Zm-1.26,2.42c0-.09-.02-.15-.12-.16-.08,0-.15,0-.16.11,0,.08,0,.15.11.15.08,0,.16,0,.16-.1Zm5.66-.15c-.08,0-.15.02-.15.12,0,.09.03.14.13.13.08,0,.15,0,.15-.12,0-.1-.04-.14-.13-.14Zm-.1-2.26c0-.08-.01-.13-.11-.13-.07,0-.13.01-.13.11,0,.08.02.13.11.13.08,0,.13-.01.13-.11Z"/>
        <path class="cls-4" d="m354.55,88.04h-9.63s0-.04,0-.06c0-.27,0-.28.26-.29.08,0,.15,0,.22-.04.17-.08.2-.2.08-.34-.05-.07-.12-.12-.18-.18-.13-.14-.1-.25.09-.3.09-.03.18-.06.26-.11.17-.1.18-.24.02-.36-.06-.05-.13-.07-.2-.11-.19-.12-.2-.24-.02-.37.06-.04.13-.08.19-.13.15-.12.12-.3-.06-.37-.06-.03-.13-.04-.19-.05-.21-.03-.26-.17-.13-.34.05-.07.11-.13.16-.2.11-.15.04-.3-.14-.32-.09,0-.19,0-.29,0-.17-.01-.24-.12-.16-.27.04-.08.08-.15.11-.23.07-.22-.03-.33-.25-.3-.08,0-.14.05-.21.08-.17.06-.24,0-.25-.18,0-.11.05-.2.06-.31.02-.21-.12-.32-.32-.23-.07.03-.14.07-.2.11-.19.11-.27.07-.28-.15,0-.08-.02-.15-.04-.22-.06-.21-.23-.26-.39-.11-.03.03-.06.07-.08.11-.05.07-.1.16-.19.14-.11-.02-.18-.11-.2-.22-.01-.08-.03-.15-.06-.22-.09-.16-.25-.17-.36-.03-.04.05-.09.1-.1.17-.02.1-.08.18-.18.19-.12.01-.18-.09-.22-.18-.03-.06-.06-.12-.1-.17-.12-.14-.28-.11-.35.06-.03.08-.04.16-.07.25-.05.18-.16.22-.32.1-.08-.06-.15-.12-.23-.17-.17-.11-.29-.04-.31.16,0,.09,0,.19,0,.29-.01.18-.14.25-.29.15-.07-.04-.14-.09-.22-.13-.16-.07-.28,0-.29.17,0,.11,0,.22.05.34.03.08.03.18-.11.18v-12.75c0-.07,0-.13,0-.2,0-.05,0-.06.06-.06.07,0,.13,0,.2,0h15.73c-.04.14-.2.13-.29.21-.15.13-.14.29.05.38.08.04.18.06.27.09.16.05.21.18.1.32-.05.07-.12.12-.18.18-.08.08-.08.17-.05.26.03.1.12.11.21.11.08,0,.15,0,.23,0,.2.01.27.15.17.33-.04.07-.09.15-.12.22-.07.18.04.33.23.3.08-.01.16-.05.25-.07.19-.05.32.06.26.26-.03.09-.01.19-.05.28-.04.09.02.14.08.19.1.09.19.03.29-.01,0,1.55,0,3.1,0,4.64-.1.05-.27.07-.27.17,0,.18-.1.36-.03.56.07.19,0,.31-.13.4-.12.08-.26.07-.41-.07-.12-.11-.27-.14-.41-.2-.14-.06-.22.07-.33.12-.1.06-.05.14-.04.22.01.16.05.32.1.47.1.28-.06.48-.33.44-.17-.02-.34-.05-.51-.06-.28-.01-.42.19-.3.44.06.13.11.26.21.37.11.11.1.24.05.37-.06.13-.18.15-.31.14-.15,0-.3,0-.45.04-.29.09-.36.26-.19.51.08.12.18.22.31.28.14.07.18.19.16.33-.03.14-.13.25-.27.25-.17,0-.31.09-.45.17-.17.09-.21.4-.05.5.13.09.24.22.41.26.14.03.24.13.25.27.02.14-.08.29-.26.33-.17.05-.27.17-.38.29-.14.16-.05.41.14.48.13.05.26.12.41.1.18-.02.3.08.36.23.06.15-.03.27-.15.37-.13.1-.23.23-.31.37-.06.11,0,.38.11.39.17.03.34.11.53.05.22-.06.32-.03.42.13.1.15.04.29-.06.42-.08.1-.14.2-.13.34Zm-.63-15.3c.13-.05.24-.15.36-.23.09-.07.17-.06.25,0,.1.09.21.17.35.22.04-.13-.02-.21-.05-.3-.08-.26-.08-.26.15-.44.08-.06.18-.1.23-.21-.08-.04-.17-.02-.25-.02-.4-.01-.31.07-.46-.34-.03-.07-.05-.14-.1-.25-.07.17-.14.29-.17.42-.03.15-.12.18-.25.17-.12,0-.25,0-.4.02.04.05.06.08.08.1.06.06.13.11.2.16.18.14.19.14.11.37-.03.11-.08.21-.05.33,0,0-.02,0-.02,0,0,0,0,0,0,.01,0,0,.02-.02.03-.02Zm.92,7.45s0,.02.01.02c0,0,.01,0,.02,0,0-.02,0-.03-.03-.02.04-.15-.03-.28-.08-.41-.04-.11-.02-.18.07-.24.12-.08.25-.16.36-.32-.18,0-.32,0-.46,0-.11,0-.17-.04-.2-.15-.05-.14-.06-.29-.18-.42-.05.14-.1.27-.14.39-.04.13-.11.18-.25.18-.13,0-.27,0-.4,0,.1.14.21.23.32.31.1.07.12.16.08.27-.04.12-.11.24-.08.39.15-.05.25-.16.37-.23.08-.05.14-.06.23,0,.12.08.21.2.36.23Zm-12.72-7.45s0,.01.01.02c0,0,0,0,.01,0l-.03-.02c.03-.13-.03-.25-.07-.36-.07-.16-.01-.25.11-.34.1-.08.23-.13.29-.28-.15,0-.28-.01-.42,0-.14.01-.21-.06-.24-.18-.04-.13-.07-.26-.16-.41-.06.17-.12.31-.16.46-.03.1-.08.13-.18.13-.15,0-.3-.01-.48.03.1.08.17.15.25.2.24.18.24.18.15.49-.02.08-.06.16-.04.25,0,0-.01,0-.02,0,0,0,0,0,0,.01,0,0,.01-.02.02-.03.15-.01.25-.13.36-.21.09-.06.16-.07.25,0,.12.08.21.19.36.22Zm5.3,11.21c.12-.08.23-.16.33-.24.1-.08.19-.1.31-.01.1.08.2.17.33.21.07-.15-.04-.27-.07-.4-.03-.13-.01-.21.11-.29.11-.07.23-.14.34-.29-.19.03-.34-.04-.49-.03-.12,0-.16-.06-.2-.16-.05-.12-.05-.27-.18-.39-.05.13-.11.25-.13.36-.03.15-.12.2-.26.18-.14-.01-.27.04-.43.06.09.07.16.13.24.19.25.18.24.18.16.49-.02.09-.1.17-.04.31Zm-6.77-9.02s-.04,0-.05,0c-.04.11-.1.23-.13.35-.03.14-.12.17-.25.18-.13,0-.32-.08-.36.05-.04.1.16.16.25.23.13.1.16.2.1.35-.04.11-.06.23-.1.37.17-.05.27-.16.38-.24.1-.07.17-.09.27,0,.11.09.23.16.4.27-.06-.21-.1-.36-.15-.5-.04-.09-.01-.14.06-.19.1-.07.2-.15.29-.23.03-.02.07-.05.04-.09-.01-.02-.05-.03-.07-.03-.1,0-.21,0-.31,0-.12,0-.19-.03-.23-.16-.03-.12-.09-.24-.14-.36Zm15.24,1.56c-.06-.21-.1-.36-.15-.5-.03-.09-.02-.14.06-.19.09-.06.18-.14.27-.21.03-.03.1-.05.07-.11-.02-.05-.08-.03-.13-.03-.08,0-.15-.01-.23,0-.16.02-.24-.04-.29-.2-.03-.11-.05-.24-.15-.34-.08.11-.11.23-.14.35-.04.15-.13.19-.27.19-.13,0-.26,0-.41,0,.09.16.22.22.33.3.11.08.13.17.09.3-.04.12-.1.24-.1.39.14-.05.24-.14.34-.21.11-.07.2-.09.31,0,.1.08.22.15.39.26Zm-13.71,3.67c-.06-.2-.09-.36-.14-.5-.03-.09-.01-.14.06-.19.12-.09.24-.18.36-.27-.03-.03-.04-.05-.06-.05-.09-.04-.19-.02-.28-.02-.29,0-.22.03-.33-.24-.04-.1-.04-.22-.14-.32-.05.14-.1.27-.15.4-.04.13-.12.17-.25.17-.12,0-.31-.06-.34.04-.04.13.15.19.25.26.12.09.14.18.09.32-.04.12-.12.23-.07.38.12-.08.22-.14.32-.22.12-.09.22-.09.33,0,.1.08.21.15.36.25Zm9.47,1.15c-.05.16-.11.3-.15.44-.03.11-.09.18-.22.16-.14-.01-.28,0-.41,0,.1.13.2.23.32.3.11.07.12.15.09.26-.04.12-.11.24-.09.4.13-.04.23-.12.32-.19.13-.11.23-.09.35,0,.09.07.18.16.33.19-.04-.14-.06-.27-.11-.39-.07-.15-.01-.22.1-.31.1-.08.23-.13.31-.28-.17,0-.31,0-.45,0-.1,0-.15-.04-.19-.13-.06-.15-.08-.31-.19-.47Zm-6.91,1.45c.04-.14-.04-.26-.08-.38-.04-.13-.02-.21.1-.29.11-.08.24-.14.33-.29-.17,0-.31,0-.46,0-.1,0-.16-.03-.19-.13-.05-.15-.11-.3-.18-.48-.07.19-.13.34-.18.49-.03.09-.07.12-.16.12-.15,0-.3,0-.49,0,.11.15.24.22.35.3.12.08.13.16.09.29-.04.12-.12.23-.07.39.12-.08.24-.15.34-.23.09-.07.16-.06.25,0,.11.08.21.17.34.21Z"/>
        <path class="cls-8" d="m356.84,78.53c0-1.55,0-3.1,0-4.64v-3.04h1.43c0,.76,0,1.53,0,2.29,0,3.15,0,6.29,0,9.44,0,1.72,0,3.43,0,5.15,0,.1,0,.21,0,.31h-1.43c0-.1,0-.21,0-.31,0-2.96,0-5.92,0-8.88,0-.1,0-.21,0-.31Z"/>
        <path class="cls-5" d="m356.84,78.53c0,.1,0,.21,0,.31,0,2.96,0,5.92,0,8.88,0,.1,0,.21,0,.31h-2.29c-.01-.13.05-.24.13-.34.1-.13.16-.27.06-.42-.1-.15-.2-.19-.42-.13-.19.05-.36-.03-.53-.05-.11-.02-.17-.28-.11-.39.08-.14.19-.27.31-.37.12-.1.21-.21.15-.37-.06-.15-.18-.25-.36-.23-.15.02-.28-.05-.41-.1-.2-.08-.28-.33-.14-.48.1-.12.2-.24.38-.29.18-.05.27-.2.26-.33-.02-.15-.11-.24-.25-.27-.17-.04-.28-.17-.41-.26-.15-.11-.12-.41.05-.5.14-.08.28-.16.45-.17.14,0,.24-.11.27-.25.03-.14-.02-.27-.16-.33-.13-.06-.23-.16-.31-.28-.17-.25-.09-.42.19-.51.15-.05.3-.04.45-.04.13,0,.26-.01.31-.14.05-.13.06-.26-.05-.37-.11-.1-.16-.24-.21-.37-.12-.25.02-.45.3-.44.17,0,.34.04.51.06.27.04.42-.16.33-.44-.05-.15-.09-.31-.1-.47,0-.08-.06-.17.04-.22.1-.06.19-.19.33-.12.14.06.29.09.41.2.15.14.29.14.41.07.14-.09.2-.21.13-.4-.07-.2.02-.37.03-.56,0-.11.17-.12.27-.17Z"/>
        <path class="cls-4" d="m344.75,88.04c-1.72,0-3.45,0-5.17,0-.13,0-.16-.02-.16-.16,0-1.27,0-2.53,0-3.8.29-.06.39-.23.3-.49-.03-.08-.12-.16-.03-.23.07-.06.12.06.18.1.16.08.32.08.46-.01.12-.08.18-.22.16-.37-.01-.06-.06-.14,0-.18.07-.04.11.05.16.09,0,0,.01.01.02.02.27.29.56.07.63-.18.01-.04,0-.08.01-.11,0-.05.03-.1.08-.1.02,0,.06.05.08.08.01.02,0,.06.02.08.08.14.19.23.37.22.18,0,.28-.09.36-.23.02-.03.02-.08.03-.11.01-.02.04-.05.07-.04.02,0,.05.03.06.05.01.03.02.07.02.11.03.17.12.28.29.32.18.04.32-.03.43-.17.04-.05.04-.13.13-.13.03.08,0,.17.02.25.04.29.23.43.57.3.04-.02.08-.06.12-.08.03-.01.07-.05.1-.01.02.02.02.05.01.08-.01.06-.04.11-.05.16-.05.27.12.47.4.46.08,0,.15-.03.22-.05.08-.02.13,0,.1.1-.01.04-.04.07-.05.1-.14.34.05.58.41.54.05,0,.11-.03.14.02.03.05-.02.1-.05.15-.02.03-.05.05-.08.08-.2.23-.12.52.17.6.09.02.19.02.26.1-.08.04-.15.08-.22.13-.09.07-.16.15-.16.29,0,.21.08.35.28.41.06.02.11.04.11.11,0,.06-.07.05-.11.06-.45.14-.51.4-.16.74.02.02.05.04.04.07,0,.05-.05.05-.09.05-.02,0-.04,0-.06,0-.37.03-.5.21-.41.57Zm-2.76-3.09c-.67,0-1.25.5-1.25,1.21,0,.76.52,1.23,1.21,1.24.67,0,1.22-.48,1.23-1.21,0-.68-.42-1.17-1.19-1.24Z"/>
        <path class="cls-1" d="m356.84,70.85v3.04c-.1.04-.19.1-.29.01-.06-.05-.12-.1-.08-.19.04-.09.03-.18.05-.28.06-.19-.06-.31-.26-.26-.08.02-.16.06-.25.07-.19.03-.31-.12-.23-.3.03-.08.08-.15.12-.22.1-.18.04-.31-.17-.33-.08,0-.15,0-.23,0-.09,0-.18,0-.21-.11-.03-.09-.03-.19.05-.26.06-.06.13-.12.18-.18.11-.14.07-.27-.1-.32-.09-.03-.18-.05-.27-.09-.18-.09-.19-.25-.05-.38.09-.08.24-.07.29-.21h1.43Z"/>
        <path class="cls-5" d="m344.75,88.04c-.09-.36.04-.53.41-.57.02,0,.04,0,.06,0,.04,0,.08,0,.09-.05,0-.03-.02-.05-.04-.07-.34-.34-.29-.6.16-.74.04-.01.11,0,.11-.06,0-.07-.06-.09-.11-.11-.2-.06-.28-.2-.28-.41,0-.13.07-.22.16-.29.07-.05.15-.09.22-.13-.08-.09-.18-.08-.26-.1-.29-.08-.37-.36-.17-.6.02-.03.06-.05.08-.08.03-.04.08-.09.05-.15-.03-.04-.09-.02-.14-.02-.36.04-.55-.2-.41-.54.01-.04.04-.07.05-.1.04-.1-.01-.13-.1-.1-.07.02-.14.05-.22.05-.27,0-.45-.19-.4-.46.01-.06.04-.11.05-.16,0-.03,0-.06-.01-.08-.03-.04-.07,0-.1.01-.04.02-.08.06-.12.08-.33.13-.52-.02-.57-.3-.01-.08.01-.17-.02-.25-.09,0-.09.08-.13.13-.11.14-.25.21-.43.17-.16-.04-.26-.15-.29-.32,0-.04,0-.08-.02-.11-.01-.02-.04-.05-.06-.05-.02,0-.05.02-.07.04-.02.03-.02.07-.03.11-.08.14-.18.23-.36.23-.18,0-.28-.09-.37-.22-.01-.02,0-.06-.02-.08-.02-.03-.05-.08-.08-.08-.05,0-.07.05-.08.1,0,.04,0,.08-.01.11-.08.25-.37.47-.63.18,0,0-.01-.01-.02-.02-.05-.04-.09-.13-.16-.09-.07.04-.01.12,0,.18.03.15-.04.29-.16.37-.14.1-.3.1-.46.01-.06-.03-.11-.15-.18-.1-.09.07,0,.16.03.23.09.26-.01.43-.3.49v-.23c.14,0,.14-.1.11-.18-.04-.11-.06-.22-.05-.34.01-.18.13-.24.29-.17.08.03.15.08.22.13.16.1.28.03.29-.15,0-.09,0-.19,0-.29.01-.2.14-.26.31-.16.08.05.15.12.23.17.15.11.27.08.32-.1.02-.08.03-.17.07-.25.07-.17.23-.2.35-.06.04.05.08.11.1.17.05.1.1.2.22.18.1,0,.16-.09.18-.19.01-.07.06-.12.1-.17.11-.14.27-.13.36.03.04.07.05.14.06.22.02.11.08.2.2.22.1.02.15-.07.19-.14.03-.04.05-.08.08-.11.16-.15.33-.1.39.11.02.07.04.14.04.22.02.23.09.27.28.15.07-.04.13-.08.2-.11.19-.09.33.01.32.23,0,.1-.07.2-.06.31,0,.19.08.24.25.18.07-.03.13-.07.21-.08.23-.02.32.08.25.3-.03.08-.07.15-.11.23-.08.15,0,.26.16.27.09,0,.19,0,.29,0,.18.01.25.17.14.32-.05.07-.11.13-.16.2-.13.17-.08.31.13.34.07.01.13.02.19.05.17.07.2.24.06.37-.06.05-.13.08-.19.13-.18.13-.17.26.02.37.06.04.14.06.2.11.16.12.15.26-.02.36-.08.05-.17.08-.26.11-.19.05-.22.16-.09.3.06.06.13.11.18.18.12.14.08.26-.08.34-.07.03-.15.04-.22.04-.25.01-.26.02-.26.29,0,.02,0,.04,0,.06h-.17Z"/>
        <path class="cls-10" d="m369.12,82.54c.32.02.7-.04,1.08.05.09.02.18.05.27.08.75.29.63,1.3.16,1.59-.13.08-.26.15-.41.2-.1.04-.11.08-.05.17.18.24.36.49.54.74.09.12.19.24.27.37.16.23.35.4.63.45.09.02.14.04.13.14-.01.12-.1.09-.17.09-.22,0-.44,0-.66,0-.15,0-.24-.05-.32-.18-.31-.5-.65-.98-1.02-1.45-.05-.06-.08-.12-.17-.14-.25-.04-.3,0-.3.25,0,.3,0,.59,0,.89,0,.26.04.31.3.37.06.01.11.01.17.03.06.01.06.06.06.11,0,.05-.02.1-.08.1-.49,0-.97,0-1.46,0-.06,0-.08-.04-.09-.09,0-.06,0-.1.07-.13.44-.15.44-.16.44-.61,0-.74,0-1.49,0-2.23,0-.07,0-.13,0-.2-.03-.25-.08-.31-.29-.36-.08-.02-.24.02-.22-.15.02-.17.16-.1.25-.1.27,0,.53,0,.86,0Zm.37.27s0,0,0,0c-.03,0-.06,0-.09,0-.33,0-.29-.04-.3.28,0,.32,0,.65,0,.97q0,.41.41.36c.06,0,.11-.02.17-.04.54-.14.81-.76.54-1.24-.11-.19-.28-.31-.5-.33-.08,0-.15,0-.23,0Z"/>
        <path class="cls-10" d="m382.82,86.43c-.44,0-.88,0-1.32,0-.06,0-.11,0-.17,0-.07,0-.1-.04-.11-.11,0-.06,0-.11.08-.12.02,0,.04,0,.06-.01q.4-.1.4-.51c0-.82,0-1.64,0-2.46,0-.3-.03-.33-.32-.42-.09-.03-.24,0-.22-.16.02-.17.16-.1.25-.1.84,0,1.68,0,2.52,0,.23,0,.23,0,.23.24,0,.19,0,.38,0,.57,0,.06.02.14-.08.15-.09.01-.15-.01-.18-.1-.06-.16-.16-.3-.28-.43-.09-.1-.2-.17-.35-.17-.27,0-.53,0-.8-.01-.13,0-.16.06-.16.17,0,.38,0,.76,0,1.14,0,.14.06.18.19.18.1,0,.21,0,.31,0,.29-.02.4-.12.49-.39.03-.1,0-.26.19-.22.15.03.09.17.09.26,0,.36,0,.73,0,1.09,0,.09.01.18-.12.19-.11,0-.12-.07-.14-.15-.02-.07-.04-.15-.07-.22-.06-.18-.2-.27-.39-.29,0,0-.02,0-.03,0q-.53-.05-.53.48c0,.27,0,.53.01.8.01.24.09.32.33.33.27.01.53,0,.8,0,.22,0,.38-.1.48-.3.08-.15.16-.31.24-.46.03-.05.04-.11.11-.12.08-.01.17-.04.16.09-.02.32-.04.65-.06.97,0,.12-.1.1-.17.1-.28,0-.55,0-.83,0-.21,0-.42,0-.63,0Z"/>
        <path class="cls-10" d="m361.74,86.43c-.45,0-.9,0-1.35,0-.06,0-.11,0-.17,0-.07,0-.1-.04-.1-.11,0-.07.02-.11.09-.11,0,0,.02,0,.03,0q.43-.11.43-.55c0-.79,0-1.58,0-2.38,0-.36-.02-.38-.36-.47-.04-.01-.07-.02-.11-.03-.07-.01-.09-.06-.09-.12,0-.07.04-.1.11-.1.05,0,.1,0,.14,0,.84,0,1.68,0,2.52,0,.24,0,.24,0,.24.25,0,.17,0,.34,0,.52,0,.07.04.16-.07.19-.11.03-.18-.03-.21-.14-.02-.05-.05-.1-.08-.15-.15-.26-.36-.44-.68-.43-.22,0-.44,0-.66,0-.12,0-.17.05-.17.17,0,.4,0,.8,0,1.2,0,.11.05.16.15.15.11,0,.23,0,.34,0,.29,0,.45-.17.52-.44,0-.03,0-.06.01-.08.01-.09.08-.1.15-.1.09,0,.11.05.11.13,0,.42,0,.84,0,1.26,0,.06-.02.11-.09.12-.07,0-.14,0-.16-.08-.02-.08-.04-.17-.07-.25-.06-.19-.2-.29-.4-.31-.57-.07-.57-.07-.57.5,0,.28-.03.55.03.83.05.23.09.27.32.28.28.01.55,0,.83,0,.19,0,.35-.09.44-.27.07-.13.15-.27.22-.4.02-.04.04-.09.06-.13.04-.09.12-.09.19-.07.08.02.06.09.05.14-.04.27-.05.55-.05.83,0,.14-.06.18-.19.17-.48,0-.95,0-1.43,0Z"/>
        <path class="cls-10" d="m364.23,84.33c0-.37,0-.74,0-1.12,0-.26-.05-.33-.3-.41-.04-.01-.07-.03-.11-.03-.09-.01-.1-.07-.09-.15,0-.08.06-.08.12-.08.46,0,.92,0,1.37,0,.07,0,.14,0,.14.1,0,.08-.04.11-.12.13-.4.12-.4.12-.4.53,0,.64,0,1.28,0,1.92,0,.15,0,.3.07.45.03.08.07.16.13.22.32.34.72.33,1.12.23.36-.09.59-.37.61-.75.04-.7.04-1.41,0-2.12-.02-.29-.11-.37-.4-.44-.03,0-.06-.01-.08-.02-.07-.03-.18-.01-.17-.14,0-.13.11-.11.19-.11.41,0,.82,0,1.23,0,.02,0,.04,0,.06,0,.08,0,.13.02.13.11,0,.07-.02.11-.09.12-.03,0-.06.01-.08.02-.37.1-.43.16-.44.55-.01.61-.03,1.22,0,1.83.03.64-.35,1.13-.99,1.29-.47.12-.93.07-1.35-.18-.34-.2-.52-.49-.52-.89,0-.35,0-.71,0-1.06Z"/>
        <path class="cls-10" d="m376.76,86.43c-.22,0-.44,0-.66,0-.07,0-.13-.01-.13-.11,0-.09.04-.11.11-.13.39-.11.39-.12.25-.5-.01-.04-.03-.07-.04-.11-.06-.16-.07-.36-.21-.46-.13-.09-.32-.03-.48-.03-.22,0-.44,0-.66,0-.12,0-.2.03-.23.16-.06.2-.15.39-.18.6-.03.17,0,.23.16.28.09.03.18.05.28.06.1.01.1.07.1.14,0,.08-.05.09-.12.09-.41,0-.82,0-1.23,0-.07,0-.13-.01-.13-.11,0-.09.04-.12.11-.13.32-.06.47-.29.58-.57.37-.97.76-1.93,1.13-2.9.02-.04.04-.09.05-.13.02-.07.07-.1.15-.1.09,0,.14.03.17.12.14.37.29.75.43,1.12.26.67.51,1.33.77,2,.09.24.22.42.49.47.1.02.13.06.12.15-.02.1-.09.08-.15.08-.22,0-.44,0-.66,0Zm-1.32-3.05c-.08.19-.14.35-.2.51-.11.27-.21.55-.32.82-.04.09,0,.12.08.12.32,0,.64,0,1,0-.19-.49-.37-.95-.56-1.45Z"/>
        <path class="cls-10" d="m380.79,83.24c0,.18,0,.36,0,.54,0,.06.02.14-.07.16-.1.02-.16-.03-.19-.12-.05-.15-.08-.29-.14-.43-.12-.28-.28-.53-.59-.63-.42-.14-.77,0-1.06.3-.22.24-.32.54-.37.85-.08.46-.09.91.08,1.35.17.45.45.8.96.88.5.08.87-.11,1.15-.52.04-.06.08-.13.11-.2.04-.09.08-.1.18-.06.1.05.08.11.05.18-.24.52-.63.86-1.21.93-1.22.16-1.95-.72-2.04-1.71-.04-.44.01-.87.2-1.28.42-.91,1.44-1.25,2.34-.9.12.05.22.16.35-.03.08-.11.23-.02.24.13,0,.18,0,.36,0,.54,0,0,0,0,0,0Z"/>
        <path class="cls-7" d="m369.23,80.57c0-.15,0-.31,0-.46,0-.13.06-.2.17-.15.12.06.21,0,.32-.03.14-.05.29-.04.4.07.08.08.14.06.22,0,.07-.04.15-.08.24-.09.25-.04.45.1.46.34.02.28,0,.55.01.83,0,.09-.04.11-.13.11-.09,0-.11-.06-.11-.13,0-.18,0-.36,0-.54,0-.07,0-.14-.01-.2-.03-.13-.13-.2-.25-.19-.16.02-.27.11-.28.23,0,.18,0,.36,0,.54,0,.06,0,.11,0,.17,0,.08-.06.11-.14.11-.09,0-.12-.04-.12-.12,0-.22,0-.44,0-.66,0-.19-.07-.27-.22-.27-.19,0-.31.1-.31.29,0,.18,0,.36,0,.54,0,.1.04.23-.14.22-.18,0-.12-.14-.12-.23,0-.13,0-.27,0-.4Z"/>
        <path class="cls-7" d="m371.68,80.57c0-.16,0-.32,0-.49,0-.13.07-.16.16-.12.09.04.17.04.26,0,.16-.08.32-.07.46.05.09.08.14.06.22,0,.08-.06.17-.09.27-.1.24-.01.39.09.43.32.05.28.02.57.02.86,0,.08-.05.12-.13.11-.09,0-.11-.05-.11-.13,0-.21,0-.42,0-.63,0-.21-.08-.3-.22-.3-.18,0-.31.13-.32.32,0,.18,0,.36,0,.54,0,.09.03.21-.12.2-.15,0-.12-.12-.12-.21,0-.2,0-.4,0-.6,0-.08-.02-.17-.11-.22-.17-.08-.42.05-.43.24,0,.22,0,.44,0,.66,0,.05,0,.1-.05.13-.07.05-.17,0-.18-.1,0-.17,0-.34,0-.52h0Z"/>
        <path class="cls-7" d="m360.4,73.13c0-.23,0-.46,0-.69,0-.1.03-.14.13-.14.29,0,.57,0,.86,0,.08,0,.13.04.12.12,0,.08-.04.13-.12.13-.19,0-.38,0-.57,0-.18,0-.16.11-.16.23,0,.13.03.2.17.19.18-.01.36,0,.54,0,.07,0,.14,0,.14.09,0,.1-.06.13-.15.13-.18,0-.36,0-.54,0-.12,0-.17.05-.16.17,0,.51-.05.4.4.41.1,0,.21,0,.31,0,.07,0,.14,0,.14.09,0,.1-.06.13-.15.13-.28,0-.55,0-.83,0-.1,0-.13-.05-.13-.14,0-.24,0-.48,0-.72Z"/>
        <path class="cls-7" d="m365.82,80.62c0,.15,0,.3,0,.46-.02.48-.48.76-.91.55-.08-.04-.08-.1-.07-.16.02-.1.09-.08.15-.06.09.03.18.05.28.04.11,0,.21-.04.26-.14.03-.05.05-.12.02-.16-.04-.07-.1,0-.15,0-.38.1-.6-.04-.69-.43-.08-.37.11-.71.42-.8.21-.06.41.07.62.04.07,0,.06.08.06.14,0,.17,0,.34,0,.51Zm-.23-.09s0-.1,0-.14c.03-.16-.06-.22-.19-.25-.19-.04-.35.05-.42.21-.07.2-.02.5.12.57.06.04.13.06.22.04.23-.05.28-.11.28-.43Z"/>
        <path class="cls-7" d="m376.48,78.22c0,.16,0,.32,0,.49-.03.45-.52.72-.92.51-.08-.04-.07-.11-.06-.17.02-.08.08-.06.14-.05.1.03.2.06.31.05.11-.01.21-.05.26-.15.02-.05.05-.11,0-.16-.04-.05-.09,0-.13.02-.39.1-.63-.05-.7-.45-.09-.48.3-.94.77-.75.03.01.06.01.08.01q.26.02.26.26c0,.13,0,.27,0,.4Zm-.23-.1c0-.08,0-.15,0-.23,0-.05-.01-.09-.06-.12-.2-.11-.5-.06-.56.22-.02.08-.01.17,0,.25.02.2.12.31.3.3.23,0,.33-.11.33-.32,0-.04,0-.08,0-.11Z"/>
        <path class="cls-7" d="m363.83,77.15c.14,0,.29,0,.43,0,.06,0,.12.01.12.09,0,.08-.03.13-.12.13-.19,0-.38,0-.57,0-.17,0-.15.1-.15.21,0,.1-.02.21.15.21.19,0,.38,0,.57,0,.08,0,.12.03.12.12,0,.09-.05.11-.13.11-.18,0-.36,0-.54,0-.11,0-.17.02-.18.15-.02.42-.03.42.39.42.11,0,.23,0,.34,0,.07,0,.11.02.11.1,0,.06-.03.12-.1.12-.31,0-.61,0-.92,0-.07,0-.1-.05-.1-.11,0-.48,0-.95,0-1.43,0-.09.06-.1.14-.1.14,0,.29,0,.43,0Z"/>
        <path class="cls-10" d="m367.15,78.24c0,.16,0,.32,0,.49-.01.33-.19.51-.52.53-.12,0-.25,0-.37-.04-.1-.03-.1-.11-.08-.19.02-.07.09-.05.15-.03.1.03.2.05.31.04.14-.01.23-.08.27-.22,0-.03,0-.08-.01-.11-.03-.05-.07,0-.1,0-.21.08-.41.1-.58-.07-.21-.21-.2-.47-.13-.72.08-.3.35-.46.66-.4.06.01.11.03.17.04.23.02.23.02.23.23,0,.15,0,.31,0,.46Zm-.22-.14s0-.09,0-.14c0-.19-.04-.23-.23-.24-.27-.02-.44.2-.4.52.03.21.15.33.33.32.22-.01.31-.11.31-.34,0-.04,0-.08,0-.11Z"/>
        <path class="cls-7" d="m361.69,76.32s-.03.07-.07.07c-.07,0-.16.02-.19-.07-.03-.09-.07-.18-.1-.27-.02-.09-.08-.12-.16-.12-.08,0-.15,0-.23,0q-.31,0-.42.28s-.03.09-.06.13c-.05.07-.12.06-.18.04-.07-.03-.04-.09-.02-.14.17-.46.33-.93.5-1.39.03-.09.08-.14.19-.14.09,0,.17,0,.21.11.18.49.36.98.54,1.47,0,0,0,.02,0,.03Zm-.76-1.27c-.05.12-.1.22-.13.33-.03.11-.09.21-.09.32.52.05.52.05.35-.42-.03-.08-.03-.17-.13-.23Z"/>
        <path class="cls-7" d="m365.96,73.58c0-.23,0-.46,0-.69,0-.13.05-.19.17-.15.12.04.22,0,.33-.04.25-.07.45.04.55.28.09.22.09.45,0,.67-.1.26-.33.39-.65.33-.15-.03-.16.02-.16.13,0,.05,0,.1,0,.14,0,.09,0,.18-.13.17-.1,0-.12-.08-.12-.16,0-.23,0-.46,0-.69Zm.86-.26s0-.04,0-.07c-.02-.23-.12-.34-.3-.34-.21,0-.33.13-.33.36,0,.1,0,.21,0,.31,0,.11.05.17.16.19.31.05.47-.1.47-.45Z"/>
        <path class="cls-10" d="m368.3,75.51c0,.24,0,.48,0,.71,0,.16-.06.21-.18.14-.08-.05-.12-.03-.19,0-.38.14-.67-.03-.71-.44-.02-.16-.02-.32.05-.48.12-.26.33-.38.62-.34q.19.03.19-.16c0-.06,0-.11,0-.17,0-.08.02-.13.11-.13.09,0,.11.05.11.13,0,.25,0,.5,0,.74h0Zm-.22.2h0c0-.08,0-.15,0-.23,0-.05,0-.09-.05-.12-.16-.11-.43-.05-.52.13-.07.13-.08.28-.05.42.04.21.14.29.33.27.21-.02.29-.11.3-.33,0-.05,0-.1,0-.14Z"/>
        <path class="cls-7" d="m369.88,73.49c0,.11,0,.23,0,.34,0,.14-.08.2-.2.13-.08-.05-.13-.04-.2,0-.1.06-.2.04-.31.04-.18,0-.32-.12-.35-.28-.05-.21.01-.37.19-.47.15-.08.33-.1.5-.11.04,0,.1,0,.11-.06,0-.05-.03-.09-.07-.12-.1-.08-.22-.06-.33-.05-.06,0-.11.03-.17.04-.05.01-.12.03-.14-.05-.02-.07,0-.14.07-.17.24-.07.49-.1.72.03.12.07.17.2.18.34,0,.12,0,.25,0,.37,0,0,0,0,0,0Zm-.25.03c0-.06.02-.15-.07-.16-.15-.02-.3-.02-.43.08-.09.07-.11.2-.03.27.11.1.25.08.37.04.1-.03.18-.1.16-.23Z"/>
        <path class="cls-7" d="m368.63,80.71c0,.12,0,.25,0,.37,0,.1-.07.16-.14.12-.16-.1-.29,0-.43.03-.34.05-.53-.19-.5-.46.02-.18.13-.29.3-.34.13-.03.26-.04.39-.06.04,0,.1,0,.11-.07,0-.05-.03-.09-.07-.12-.07-.06-.16-.06-.24-.05-.08,0-.17.03-.25.05-.05,0-.12.05-.13-.05,0-.06-.03-.15.06-.17.23-.07.47-.1.69.02.13.07.2.2.2.35,0,.12,0,.25,0,.37Zm-.42-.13c-.12,0-.23,0-.32.08-.06.05-.1.12-.08.2.02.08.07.13.16.14.13.01.24,0,.35-.07.11-.07.1-.18.08-.28-.02-.11-.12-.07-.19-.07Z"/>
        <path class="cls-7" d="m371.61,75.9c0,.11,0,.23,0,.34,0,.13-.07.19-.17.14-.1-.06-.18-.04-.26,0-.02.01-.05.01-.08.02-.29.05-.5-.08-.55-.32-.05-.25.09-.42.39-.49.1-.02.21-.03.31-.05.04,0,.1,0,.1-.07,0-.05-.02-.09-.07-.12-.08-.05-.16-.05-.25-.04-.08,0-.17.03-.25.05-.05,0-.12.05-.12-.05,0-.06-.03-.14.06-.17.23-.07.47-.09.69.02.13.06.19.18.2.33,0,.13,0,.27,0,.4Zm-.23,0c.01-.09-.02-.15-.12-.14-.12,0-.25,0-.36.06-.13.08-.16.22-.07.31.11.1.25.07.37.03.11-.04.2-.11.17-.25Z"/>
        <path class="cls-7" d="m360.4,80.36c0-.22,0-.44,0-.66,0-.11.03-.16.15-.15.15,0,.3,0,.46,0,.29.02.47.19.49.45.01.29-.16.51-.44.57-.13.03-.3-.07-.37.07-.05.1-.02.24-.02.36,0,0,0,.02,0,.03,0,.1-.03.17-.14.16-.11,0-.11-.08-.11-.16,0-.23,0-.46,0-.68Zm.24-.3s0,.1,0,.14c-.01.12.03.17.16.17.27,0,.46-.12.45-.32-.01-.2-.17-.29-.45-.28-.1,0-.16.03-.16.15,0,.05,0,.09,0,.14Z"/>
        <path class="cls-7" d="m368.45,73.67c.07.19,0,.27-.17.31-.16.04-.32.04-.48.01-.06-.01-.13-.04-.18-.08-.23-.14-.32-.48-.23-.79.07-.24.3-.41.55-.42.33-.01.58.24.57.57,0,.12-.07.14-.17.14-.19,0-.38,0-.57,0-.17,0-.2.06-.11.21.1.16.3.22.53.16.08-.02.16-.06.25-.1Zm-.17-.47c-.03-.17-.08-.28-.25-.3-.15-.02-.29,0-.37.15-.06.1-.05.14.07.14.17,0,.34,0,.55,0Z"/>
        <path class="cls-7" d="m371.59,78.81c-.27.01-.49-.07-.59-.32-.11-.27-.11-.54.09-.78.16-.19.41-.25.65-.17.21.07.32.24.34.48,0,.13-.03.2-.17.2-.2,0-.4,0-.6,0-.13,0-.15.04-.09.16.09.19.25.26.5.22.06,0,.11-.04.16-.05.06,0,.12-.12.16-.02.04.09.03.18-.1.23-.12.05-.24.06-.36.06Zm-.4-.8c.19,0,.37,0,.55,0,.12,0,.12-.06.08-.14-.06-.13-.18-.16-.31-.15-.18,0-.28.1-.32.3Z"/>
        <path class="cls-7" d="m375.1,80.88c.02.26.02.26-.16.31-.18.05-.36.05-.53,0-.45-.14-.46-.69-.3-.98.12-.22.38-.34.63-.29.25.05.39.2.43.47.03.18,0,.22-.18.23-.19,0-.38,0-.57,0-.15,0-.17.05-.11.17.08.16.21.21.37.22.14,0,.28-.03.43-.13Zm-.52-.46h0c.08,0,.15,0,.23,0,.12,0,.11-.08.08-.16-.07-.14-.3-.19-.45-.1-.08.05-.18.12-.15.22.02.07.13.03.21.04.03,0,.06,0,.09,0Z"/>
        <path class="cls-7" d="m370.25,78.81c-.26,0-.47-.05-.59-.28-.14-.25-.12-.51.02-.76.13-.22.42-.32.67-.24.24.07.37.28.36.55,0,.1-.04.14-.13.14-.2,0-.4,0-.6,0-.14,0-.18.07-.11.2.06.11.15.16.27.18.14.02.26,0,.39-.06.04-.02.1-.09.14-.02.04.08.04.17-.06.22-.12.07-.25.09-.37.08Zm-.1-.8c.07,0,.13,0,.2,0,.14,0,.16-.06.08-.18-.1-.15-.36-.17-.51-.04-.05.05-.1.1-.07.17.03.06.1.04.15.04.05,0,.1,0,.14,0Z"/>
        <path class="cls-7" d="m366.37,76.41c-.44,0-.65-.23-.65-.65,0-.39.24-.66.59-.66.35,0,.54.21.55.58,0,.11-.07.12-.15.12-.2,0-.4,0-.6,0-.16,0-.18.04-.1.18.09.17.25.23.49.19.06,0,.11-.04.16-.05.06,0,.11-.11.17-.02.05.07,0,.19-.1.23-.12.05-.25.08-.36.06Zm-.1-.8c.06,0,.11,0,.17,0,.06,0,.15.03.17-.05.02-.08-.03-.14-.09-.19-.11-.09-.34-.08-.44.02-.05.05-.13.11-.1.19.03.06.12.03.18.03.04,0,.08,0,.11,0Z"/>
        <path class="cls-7" d="m368.2,78.17c0-.15,0-.3,0-.46,0-.12.05-.2.16-.16.13.05.23,0,.35-.03.29-.08.53.06.55.36.02.26,0,.53.01.8,0,.07-.03.11-.1.11-.07,0-.14,0-.15-.09,0-.06,0-.11,0-.17,0-.16,0-.32,0-.49.01-.32-.22-.34-.42-.26-.1.04-.14.11-.14.22,0,.2,0,.4,0,.6,0,.1.01.2-.14.19-.16,0-.12-.11-.12-.2,0-.14,0-.29,0-.43Z"/>
        <path class="cls-7" d="m375.43,75.72c0-.14,0-.29,0-.43,0-.14.07-.18.18-.14.11.05.2,0,.29-.02.33-.1.57.06.59.41.01.23,0,.46,0,.69,0,.09,0,.17-.13.17-.12,0-.13-.09-.13-.18,0-.19,0-.38,0-.57,0-.11,0-.23-.13-.29-.13-.06-.22,0-.32.05-.1.04-.1.13-.1.22,0,.21,0,.42,0,.63,0,.07,0,.13-.1.14-.1,0-.15-.03-.15-.13,0-.18,0-.36,0-.54,0,0,0,0,0,0Z"/>
        <path class="cls-7" d="m364.69,78.16c0-.15,0-.31,0-.46,0-.14.07-.19.17-.14.13.06.22,0,.32-.03.3-.09.54.06.56.38.02.25,0,.5,0,.74,0,.09-.03.15-.13.15-.11,0-.12-.07-.12-.15,0-.21,0-.42,0-.63,0-.19-.09-.28-.25-.28-.18,0-.3.11-.3.3,0,.19,0,.38,0,.57,0,.1,0,.2-.14.2-.14,0-.11-.1-.12-.18,0-.15,0-.31,0-.46Z"/>
        <path class="cls-7" d="m360.29,78.18c0-.44.25-.7.63-.67.21.02.36.12.45.3.12.24.11.48,0,.71-.09.21-.26.29-.48.3-.21,0-.39-.05-.51-.25-.07-.13-.12-.26-.1-.4Zm.9-.02s0-.1,0-.14c-.03-.18-.14-.29-.3-.3-.18-.01-.29.08-.34.28-.03.13-.02.27.01.39.05.2.24.28.43.2.2-.08.2-.25.2-.43Z"/>
        <path class="cls-7" d="m363.1,80.58c0-.43.25-.7.63-.67.02,0,.04,0,.06,0,.23.05.38.19.44.4.08.28.06.55-.15.77-.17.17-.39.19-.61.11-.23-.08-.36-.31-.36-.62Zm.91,0s0-.08,0-.11c-.02-.21-.14-.34-.31-.35-.19,0-.29.09-.34.3,0,.04-.02.07-.02.11-.02.26.11.47.32.49.22.02.35-.15.35-.45Z"/>
        <path class="cls-7" d="m370.22,73.36c0-.16,0-.32,0-.49,0-.12.08-.17.16-.13.12.07.22,0,.32-.02.34-.1.57.06.58.41,0,.23,0,.46,0,.69,0,.08,0,.16-.11.16-.14,0-.12-.09-.12-.17,0-.19,0-.38,0-.57-.02-.3-.21-.4-.47-.25-.09.05-.12.11-.11.21,0,.2,0,.4,0,.6,0,.08.03.18-.11.19-.15,0-.14-.1-.14-.2,0-.14,0-.29,0-.43Z"/>
        <path class="cls-7" d="m374,78.17c0-.16,0-.32,0-.49,0-.13.08-.17.16-.12.12.07.21.02.32-.02.33-.11.57.06.58.41,0,.24,0,.48,0,.71,0,.07-.01.13-.1.14-.11,0-.12-.06-.12-.14,0-.2,0-.4,0-.6-.02-.28-.19-.38-.45-.26-.1.05-.14.11-.14.22,0,.21,0,.42,0,.63,0,.08,0,.15-.12.15-.1,0-.13-.06-.13-.15,0-.16,0-.32,0-.49Z"/>
        <path class="cls-7" d="m365.65,73.36c0,.44-.26.68-.68.64-.03,0-.06,0-.08-.01-.31-.09-.48-.51-.36-.89.1-.32.4-.48.72-.38.27.08.41.31.41.65Zm-.91-.02c0,.1,0,.21.06.3.1.16.29.21.44.11.22-.14.23-.65.01-.8-.04-.03-.09-.04-.13-.05-.24-.03-.38.12-.38.44Z"/>
        <path class="cls-7" d="m374.41,76.41c-.31.02-.57-.21-.58-.67,0-.38.23-.64.58-.65.35,0,.59.27.59.66,0,.41-.22.65-.59.65Zm0-1.1c-.09,0-.16.02-.22.09-.15.16-.15.56,0,.71.11.11.28.13.41.04.21-.15.21-.63,0-.79-.06-.04-.12-.06-.19-.06Z"/>
        <path class="cls-7" d="m385.71,84.26c-.53.03-.92-.47-.91-.9.02-.51.4-.91.91-.91.52,0,.92.41.92.93,0,.41-.37.92-.92.89Zm.58-.4c.24-.17.26-.58.13-.83-.15-.29-.38-.46-.73-.45-.31.01-.59.2-.7.49-.14.36,0,.79.35.99.32.18.72.1.96-.2h0Z"/>
        <path class="cls-10" d="m372.67,84.65c-.22,0-.44,0-.66,0-.13,0-.17-.05-.16-.17,0-.06,0-.11,0-.17,0-.08.03-.12.12-.12.47,0,.93,0,1.4,0,.1,0,.14.04.14.13,0,.06,0,.11,0,.17,0,.11-.04.15-.15.15-.23,0-.46,0-.68,0Z"/>
        <path class="cls-7" d="m362.97,73.38c0,.15,0,.31,0,.46,0,.13-.09.2-.17.13-.1-.09-.16-.04-.24,0-.37.14-.63-.03-.64-.42-.01-.22,0-.44,0-.66,0-.09.01-.15.12-.15.1,0,.13.05.13.14,0,.21,0,.42,0,.63,0,.21.07.27.25.27.21,0,.33-.11.33-.3,0-.14-.02-.29,0-.43.02-.11-.11-.32.11-.31.2,0,.08.21.1.32.02.1,0,.21,0,.31Z"/>
        <path class="cls-7" d="m376.09,81.22c-.17,0-.28,0-.39-.05-.09-.03-.11-.09-.11-.18,0-.09.03-.13.12-.07.14.09.3.11.47.09.08-.01.15-.03.15-.14,0-.1-.06-.14-.14-.16-.11-.03-.23-.04-.33-.08-.29-.1-.34-.41-.1-.61.17-.14.56-.16.73-.03.08.06.07.14.05.2-.04.08-.09,0-.14,0-.12-.04-.23-.09-.36-.06-.08.02-.14.07-.16.14-.02.09.05.13.13.15.08.02.17.04.25.06.22.06.35.2.34.37-.01.18-.17.34-.38.37-.06,0-.11,0-.12,0Z"/>
        <path class="cls-7" d="m361.77,78.27c0-.13.01-.27,0-.4-.02-.2-.01-.38.03-.52.08-.27.32-.33.54-.3.07.01.12.06.11.14,0,.08-.07.08-.13.08-.06,0-.12,0-.17,0-.11.03-.16.12-.14.22.01.09.11.04.17.05.07.02.19-.05.2.09,0,.13-.1.12-.18.12-.15,0-.17.08-.17.2,0,.2,0,.4,0,.6,0,.06,0,.11-.01.17-.01.07-.07.08-.13.08-.07,0-.11-.03-.11-.1,0-.14,0-.29,0-.43,0,0,0,0,0,0Z"/>
        <path class="cls-10" d="m370.01,76.4c-.25,0-.35-.09-.4-.34-.02-.13-.02-.27-.02-.4,0-.13.04-.27-.1-.36-.03-.02-.03-.09-.01-.1.14-.07.12-.2.12-.32,0-.07.04-.1.11-.1.07,0,.14.01.14.1,0,.04,0,.08,0,.11,0,.11.03.16.14.15.06,0,.11,0,.17,0,.05,0,.09.02.09.08,0,.07-.02.11-.09.11,0,0-.02,0-.03,0q-.29.03-.29.33c0,.1,0,.21,0,.31,0,.14.07.2.22.2.07,0,.19-.07.19.08,0,.15-.12.11-.21.13,0,0-.02,0-.03,0Z"/>
        <path class="cls-7" d="m363.91,76.41c-.29,0-.5-.13-.58-.36-.1-.28-.03-.63.16-.8.19-.16.5-.2.72-.09.07.03.1.08.11.15,0,.07,0,.14-.11.09-.03-.01-.05-.03-.08-.04-.24-.1-.4-.07-.51.08-.12.16-.1.5.03.64.06.06.12.09.2.09.11,0,.21,0,.3-.06.04-.02.1-.1.14-.03.05.07.04.17-.05.23-.11.06-.23.09-.34.08Z"/>
        <path class="cls-7" d="m362.57,76.41c-.27,0-.48-.14-.56-.36-.1-.28-.03-.63.16-.8.18-.16.51-.2.72-.08.04.02.08.05.09.1,0,.05.02.1,0,.14-.04.05-.08.01-.12,0-.04-.02-.08-.04-.13-.06-.26-.09-.48.06-.5.34,0,.05,0,.1,0,.14.02.28.18.41.46.37.08-.01.15-.04.21-.08.07-.05.1-.02.11.06,0,.09-.02.16-.12.2-.1.04-.2.05-.31.05Z"/>
        <path class="cls-10" d="m372.53,76.4c-.26,0-.38-.12-.39-.38,0-.12,0-.25,0-.37,0-.06-.01-.12,0-.17.04-.15-.26-.19-.14-.28.12-.1.14-.17.13-.3,0-.08.02-.13.11-.12.08,0,.12.05.12.13,0,.04,0,.08,0,.11,0,.11.05.13.14.13.06,0,.11,0,.17,0,.06,0,.12,0,.12.08,0,.09-.05.12-.13.12-.06,0-.11,0-.17,0-.1,0-.14.04-.13.14,0,.16,0,.32,0,.49.01.17.06.21.23.22.07,0,.19-.07.19.08,0,.14-.11.13-.2.14-.02,0-.04,0-.06,0Z"/>
        <path class="cls-10" d="m361.97,80.55c0-.14,0-.29,0-.43,0-.17.11-.24.22-.13.08.08.11.06.18.02.1-.06.2-.06.3-.06.09,0,.11.06.11.13,0,.07-.04.1-.11.1-.07,0-.13,0-.2,0-.19.03-.25.11-.25.31,0,.18,0,.36,0,.54,0,.08,0,.15-.11.16-.12,0-.14-.07-.14-.16,0-.16,0-.32,0-.49Z"/>
        <path class="cls-7" d="m366.43,80.56c0-.15,0-.31,0-.46,0-.13.11-.21.2-.12.1.1.15.06.23.02.09-.05.18-.04.28-.04.07,0,.09.05.09.12,0,.06-.01.11-.09.11-.06,0-.11,0-.17,0-.22.03-.29.11-.29.33,0,.18,0,.36,0,.54,0,.07,0,.13-.1.14-.1,0-.14-.04-.14-.13,0-.17,0-.34,0-.51,0,0,0,0,0,0Z"/>
        <path class="cls-7" d="m363.45,73.36c0-.15,0-.31,0-.46,0-.17.1-.23.23-.12.07.06.1.05.16.01.09-.05.18-.06.28-.06.09,0,.15.02.15.12,0,.09-.05.11-.13.11-.04,0-.08,0-.11,0-.24.02-.31.1-.31.34,0,.18,0,.36,0,.54,0,.07-.02.13-.11.13-.1,0-.14-.05-.14-.14,0-.16,0-.32,0-.49,0,0,0,0,0,0Z"/>
        <path class="cls-7" d="m372.38,78.15c0-.15,0-.3,0-.46,0-.13.12-.21.2-.12.1.1.16.06.24.01.08-.04.17-.04.25-.03.12,0,.1.09.1.16,0,.09-.06.07-.12.07-.06,0-.11,0-.17,0-.19.03-.25.11-.26.31,0,.18,0,.36,0,.54,0,.1-.03.17-.15.16-.12,0-.1-.09-.1-.17,0-.16,0-.32,0-.48Z"/>
        <path class="cls-7" d="m364.69,75.76c0-.16,0-.32,0-.49,0-.13.12-.2.2-.1.07.09.1.08.17.03.1-.07.22-.07.33-.06.07,0,.09.05.09.12,0,.07-.02.11-.09.11-.07,0-.13,0-.2,0-.2.04-.27.13-.27.33,0,.18,0,.36,0,.54,0,.07,0,.13-.1.14-.1,0-.13-.05-.13-.14,0-.16,0-.32,0-.49Z"/>
        <path class="cls-4" d="m373.62,78.18c0,.16,0,.32,0,.48,0,.09-.03.14-.13.14-.09,0-.14-.03-.14-.13,0-.33,0-.67,0-1,0-.1.05-.13.14-.13.1,0,.13.05.13.14,0,.16,0,.32,0,.48Z"/>
        <path class="cls-7" d="m367.57,78.16c0-.16,0-.32,0-.48,0-.1.05-.13.14-.13.09,0,.11.06.11.13,0,.32,0,.65,0,.97,0,.09-.03.15-.13.15-.11,0-.12-.07-.12-.15,0-.16,0-.32,0-.48h0Z"/>
        <path class="cls-7" d="m369.07,75.75c0,.17,0,.34,0,.51,0,.09-.05.14-.14.13-.09,0-.1-.07-.1-.14,0-.32,0-.65,0-.97,0-.09.03-.14.13-.14.11,0,.12.06.12.15,0,.15,0,.3,0,.46,0,0,0,0,0,0Z"/>
        <path class="cls-7" d="m373.17,75.75c0-.16,0-.32,0-.49,0-.08.03-.12.12-.12.09,0,.11.05.11.13,0,.33,0,.67,0,1,0,.08-.03.12-.12.12-.09,0-.11-.06-.11-.13,0-.17,0-.34,0-.51Z"/>
        <path class="cls-4" d="m369.09,74.85c0,.1-.05.12-.14.12-.09,0-.14-.03-.14-.13,0-.07.02-.13.11-.13.09,0,.17.02.17.14Z"/>
        <path class="cls-4" d="m367.83,77.27c0,.11-.09.1-.16.1-.11,0-.11-.07-.11-.15,0-.11.08-.11.16-.11.1,0,.13.07.12.16Z"/>
        <path class="cls-7" d="m373.49,77.12c.09,0,.13.04.13.14,0,.11-.07.11-.15.12-.1,0-.13-.04-.13-.13,0-.1.07-.12.15-.12Z"/>
        <path class="cls-10" d="m373.4,74.86c0,.09-.05.11-.13.11-.09,0-.11-.05-.11-.13,0-.09.06-.1.13-.11.09,0,.11.05.11.13Z"/>
        <path class="cls-2" d="m347.41,83.95c-.05-.14.02-.22.04-.31.09-.31.09-.31-.16-.49-.08-.06-.15-.12-.24-.19.16-.02.29-.07.43-.06.14.01.23-.03.26-.18.02-.12.08-.23.13-.36.13.11.14.26.18.39.04.1.08.17.2.16.15,0,.3.06.49.03-.1.14-.23.21-.34.29-.12.08-.14.16-.11.29.03.13.14.25.07.4-.13-.04-.23-.13-.33-.21-.11-.09-.2-.07-.31.01-.1.08-.22.15-.33.24Z"/>
        <path class="cls-2" d="m340.64,74.92c.05.12.11.24.14.36.03.13.11.17.23.16.1,0,.21,0,.31,0,.03,0,.06,0,.07.03.03.04-.01.07-.04.09-.1.08-.19.16-.29.23-.07.05-.1.1-.06.19.05.14.09.29.15.5-.17-.11-.3-.18-.4-.27-.1-.09-.17-.07-.27,0-.11.08-.21.19-.38.24.04-.14.06-.26.1-.37.06-.15.03-.25-.1-.35-.09-.07-.29-.14-.25-.23.05-.12.24-.04.36-.05.13,0,.22-.03.25-.18.03-.12.08-.23.13-.35.02,0,.04,0,.05,0Z"/>
        <path class="cls-2" d="m355.88,76.48c-.17-.11-.28-.18-.39-.26-.11-.09-.2-.07-.31,0-.11.07-.2.16-.34.21,0-.15.06-.27.1-.39.04-.12.02-.21-.09-.3-.11-.08-.24-.14-.33-.3.15,0,.28,0,.41,0,.14,0,.23-.03.27-.19.03-.12.06-.24.14-.35.1.1.12.22.15.34.04.16.12.22.29.2.07-.01.15,0,.23,0,.05,0,.1-.02.13.03.03.06-.04.08-.07.11-.09.07-.18.15-.27.21-.08.05-.09.1-.06.19.05.14.09.29.15.5Z"/>
        <path class="cls-2" d="m342.17,80.15c-.15-.1-.26-.17-.36-.25-.11-.1-.22-.09-.33,0-.1.07-.2.14-.32.22-.04-.15.04-.27.07-.38.05-.14.03-.23-.09-.32-.1-.07-.29-.13-.25-.26.03-.09.22-.04.34-.04.14,0,.21-.04.25-.17.04-.13.09-.26.15-.4.1.1.1.22.14.32.11.27.04.24.33.24.09,0,.19-.02.28.02.02,0,.03.02.06.05-.12.09-.24.18-.36.27-.07.05-.09.1-.06.19.05.15.09.3.14.5Z"/>
        <path class="cls-2" d="m342.11,72.74c-.15-.03-.25-.14-.36-.22-.09-.06-.17-.06-.25,0-.11.08-.21.2-.36.21h0c-.02-.09.02-.16.04-.25.09-.3.09-.3-.15-.49-.07-.06-.14-.12-.25-.2.18-.04.33-.03.48-.03.1,0,.15-.03.18-.13.04-.14.1-.28.16-.46.09.15.12.28.16.41.04.12.1.19.24.18.13-.01.27,0,.42,0-.06.15-.19.2-.29.28-.12.09-.18.18-.11.34.05.11.11.23.07.36h0Z"/>
        <path class="cls-2" d="m354.83,80.18c-.15-.03-.24-.15-.36-.23-.09-.06-.15-.06-.23,0-.12.08-.22.18-.37.23-.03-.15.04-.27.08-.39.04-.12.02-.2-.08-.27-.11-.08-.22-.18-.32-.31.13,0,.27,0,.4,0,.14,0,.21-.05.25-.18.04-.13.09-.25.14-.39.13.13.14.28.18.42.04.11.09.15.2.15.14,0,.28,0,.46,0-.11.16-.24.23-.36.32-.09.06-.11.13-.07.24.05.13.12.26.08.41h0Z"/>
        <path class="cls-2" d="m353.92,72.74c-.03-.12.02-.22.05-.33.07-.23.07-.23-.11-.37-.07-.05-.13-.11-.2-.16-.02-.02-.03-.04-.08-.1.15,0,.27-.02.4-.02.13,0,.21-.02.25-.17.03-.13.1-.26.17-.42.04.11.07.18.1.25.15.42.06.33.46.34.08,0,.17-.02.25.02-.05.11-.16.14-.23.21-.22.18-.22.18-.15.44.03.09.08.17.05.3-.13-.05-.24-.13-.35-.22-.09-.07-.16-.08-.25,0-.11.08-.22.18-.36.23h0Z"/>
        <path class="cls-2" d="m351.64,81.3c.1.16.13.32.19.47.04.09.09.14.19.13.14,0,.28,0,.45,0-.07.15-.21.2-.31.28-.11.09-.17.16-.1.31.05.12.07.25.11.39-.15-.03-.24-.12-.33-.19-.12-.09-.22-.11-.35,0-.09.07-.19.15-.32.19-.02-.15.05-.27.09-.4.04-.12.02-.19-.09-.26-.12-.08-.22-.17-.32-.3.14,0,.28-.01.41,0,.13.01.19-.05.22-.16.04-.14.1-.28.15-.44Z"/>
        <path class="cls-2" d="m344.73,82.75c-.14-.05-.24-.14-.34-.21-.09-.07-.16-.08-.25,0-.1.08-.22.15-.34.23-.05-.16.03-.27.07-.39.04-.13.03-.21-.09-.29-.11-.08-.24-.15-.35-.3.19,0,.34,0,.49,0,.09,0,.14-.03.16-.12.05-.15.11-.3.18-.49.07.18.14.33.18.48.03.1.09.13.19.13.14,0,.28,0,.46,0-.08.16-.22.21-.33.29-.11.08-.14.16-.1.29.04.12.12.24.08.38Z"/>
        <path class="cls-2" d="m354.83,80.19s.03,0,.03.02c0,0-.01,0-.02,0,0,0,0-.02-.01-.02h0Z"/>
        <path class="cls-2" d="m353.92,72.74s-.02.02-.03.02c0,0,0-.01,0-.01,0,0,.01,0,.02,0h0Z"/>
        <path class="cls-2" d="m342.11,72.74l.03.02s-.01,0-.01,0c0,0,0-.01-.01-.02h0Z"/>
        <path class="cls-2" d="m341.14,72.74s-.01.02-.02.03c0,0,0-.01,0-.01,0,0,.01,0,.02,0h0Z"/>
        <path class="cls-5" d="m341.99,84.94c.77.07,1.19.56,1.19,1.24,0,.73-.55,1.21-1.23,1.21-.7,0-1.21-.48-1.21-1.24,0-.71.58-1.21,1.25-1.21Zm.99,1.24c.03-.56-.4-1.06-1-1.05-.63,0-1.05.41-1.05,1.04,0,.67.56,1.02,1.01,1.01.61-.01,1.04-.41,1.04-1Z"/>
        <path class="cls-3" d="m369.48,82.81c.08,0,.15,0,.23,0,.23.02.39.13.5.33.27.48,0,1.11-.54,1.24-.06.01-.11.03-.17.04q-.41.05-.41-.36c0-.32,0-.65,0-.97,0-.32-.03-.28.3-.28.03,0,.06,0,.09,0,0,0,0,0,0,0Z"/>
        <path class="cls-2" d="m375.44,83.38c.19.5.37.96.56,1.45-.35,0-.68,0-1,0-.09,0-.12-.02-.08-.12.11-.27.21-.55.32-.82.06-.16.12-.31.2-.51Z"/>
        <path class="cls-2" d="m365.59,80.53c0,.32-.04.38-.28.43-.08.02-.15,0-.22-.04-.13-.08-.19-.38-.12-.57.06-.16.23-.25.42-.21.14.03.22.09.19.25,0,.05,0,.09,0,.14Z"/>
        <path class="cls-2" d="m376.25,78.12s0,.08,0,.11c0,.22-.1.32-.33.32-.17,0-.28-.1-.3-.3,0-.08,0-.17,0-.25.06-.29.35-.33.56-.22.05.03.06.07.06.12,0,.08,0,.15,0,.23Z"/>
        <path class="cls-2" d="m366.93,78.11s0,.08,0,.11c0,.23-.09.33-.31.34-.18.01-.3-.11-.33-.32-.04-.32.13-.54.4-.52.19.01.23.05.23.24,0,.05,0,.09,0,.14Z"/>
        <path class="cls-2" d="m360.93,75.04c.1.06.1.16.13.23.17.47.17.47-.35.42,0-.12.06-.21.09-.32.03-.11.08-.21.13-.33Z"/>
        <path class="cls-2" d="m366.82,73.33c0,.35-.16.49-.47.45-.12-.02-.16-.07-.16-.19,0-.1,0-.21,0-.31,0-.23.12-.36.33-.36.18,0,.28.11.3.34,0,.03,0,.06,0,.07Z"/>
        <path class="cls-2" d="m368.08,75.72s0,.1,0,.14c0,.22-.09.31-.3.33-.19.02-.29-.06-.33-.27-.03-.14-.02-.29.05-.42.09-.18.36-.24.52-.13.05.03.05.07.05.12,0,.08,0,.15,0,.23h0Z"/>
        <path class="cls-2" d="m369.63,73.52c.02.13-.06.2-.16.23-.13.04-.26.07-.37-.04-.08-.07-.06-.21.03-.27.13-.1.28-.1.43-.08.09,0,.07.1.07.16Z"/>
        <path class="cls-2" d="m368.21,80.58c.07,0,.17-.04.19.07.02.1.03.21-.08.28-.11.07-.23.08-.35.07-.09,0-.14-.06-.16-.14-.02-.08.01-.15.08-.2.09-.07.21-.08.32-.08Z"/>
        <path class="cls-2" d="m371.38,75.9c.03.14-.06.22-.17.25-.13.04-.26.07-.37-.03-.1-.09-.06-.23.07-.31.11-.07.24-.05.36-.06.1,0,.13.05.12.14Z"/>
        <path class="cls-2" d="m360.63,80.06s0-.1,0-.14c0-.12.05-.14.16-.15.28-.01.44.08.45.28.01.2-.17.33-.45.32-.13,0-.17-.06-.16-.17,0-.05,0-.09,0-.14Z"/>
        <path class="cls-2" d="m368.27,73.2c-.21,0-.38,0-.55,0-.11,0-.12-.05-.07-.14.09-.15.22-.17.37-.15.16.02.22.13.25.3Z"/>
        <path class="cls-2" d="m371.18,78.01c.04-.2.14-.29.32-.3.13,0,.24.02.31.15.04.09.04.15-.08.14-.18,0-.36,0-.55,0Z"/>
        <path class="cls-2" d="m374.57,80.42s-.06,0-.09,0c-.07,0-.18.04-.21-.04-.03-.1.07-.17.15-.22.15-.1.38-.04.45.1.03.07.05.15-.08.16-.08,0-.15,0-.23,0h0Z"/>
        <path class="cls-2" d="m370.14,78.01s-.1,0-.14,0c-.05,0-.13.02-.15-.04-.03-.07.02-.13.07-.17.15-.13.41-.11.51.04.08.12.05.17-.08.18-.07,0-.13,0-.2,0Z"/>
        <path class="cls-2" d="m366.27,75.61s-.08,0-.11,0c-.06,0-.16.03-.18-.03-.03-.07.04-.14.1-.19.11-.1.34-.11.44-.02.06.05.11.12.09.19-.02.08-.11.05-.17.05-.06,0-.11,0-.17,0Z"/>
        <path class="cls-2" d="m361.19,78.16c0,.18,0,.35-.2.43-.19.08-.38,0-.43-.2-.03-.13-.05-.26-.01-.39.05-.19.16-.29.34-.28.15,0,.27.12.3.3,0,.05,0,.1,0,.14Z"/>
        <path class="cls-2" d="m364,80.59c0,.3-.13.47-.35.45-.21-.02-.34-.23-.32-.49,0-.04.01-.07.02-.11.05-.22.15-.31.34-.3.17,0,.29.14.31.35,0,.04,0,.08,0,.11Z"/>
        <path class="cls-2" d="m364.74,73.35c0-.31.14-.47.38-.44.04,0,.09.02.13.05.22.15.21.66-.01.8-.15.1-.34.05-.44-.11-.06-.09-.06-.2-.06-.3Z"/>
        <path class="cls-2" d="m374.41,75.31c.07,0,.13.01.19.06.21.16.21.64,0,.79-.13.09-.31.08-.41-.04-.15-.16-.14-.56,0-.71.06-.07.14-.1.22-.09Z"/>
        <path class="cls-2" d="m386.29,83.85c-.24.3-.64.39-.96.2-.34-.2-.49-.63-.35-.99.12-.29.39-.48.7-.49.35-.01.57.16.73.45.13.24.1.66-.13.83,0-.04.01-.1-.05-.12-.11-.04-.16-.13-.23-.21-.08-.08-.1-.15,0-.23.09-.07.13-.17.07-.28-.05-.1-.14-.15-.26-.15-.18,0-.36,0-.55,0,.23.27.13.55.11.82-.22.16-.02.13.07.14.07,0,.15,0,.23,0,.04-.01.09-.06,0-.09-.12-.04-.08-.14-.08-.22,0-.08.05-.1.11-.05.04.04.09.08.11.13.09.2.26.26.46.25Z"/>
        <path class="cls-4" d="m342.97,86.19c0,.59-.43.99-1.04,1-.45.01-1.02-.34-1.01-1.01,0-.63.43-1.04,1.05-1.04.6,0,1.03.49,1,1.05Z"/>
        <path class="cls-7" d="m386.29,83.85c-.2.01-.37-.05-.46-.25-.02-.05-.07-.09-.11-.13-.06-.05-.11-.03-.11.05,0,.08-.04.18.08.22.09.03.04.08,0,.09-.07.02-.15.02-.23,0-.08,0-.29.03-.07-.14.02-.27.12-.55-.11-.82.2,0,.37,0,.55,0,.12,0,.2.05.26.15.06.11.02.21-.07.28-.11.08-.09.15,0,.23.07.07.12.17.23.21.06.02.05.07.05.12h0Zm-.69-.7c.02.06-.04.17.08.17.1,0,.18-.05.2-.16.01-.1-.07-.17-.18-.17-.12,0-.1.09-.1.16Z"/>
        <path class="cls-2" d="m385.6,83.15c0-.08-.02-.17.1-.16.11,0,.19.07.18.17-.02.11-.1.17-.2.16-.12,0-.07-.11-.08-.17Z"/>
      </g>
    </g>
  </g>
</svg>