<svg xmlns="http://www.w3.org/2000/svg" viewBox="0 0 24 24" role="img"><title>Java</title><path fill="#ED8B00" d="M8.9 18.7s-.7.4.5.6c1.5.1 2.2.1 3.8-.1 0 0 .4.3 1 .4-3.6 1.5-8.1-.4-5.3-.9m-.5-2s-.8.6.4.7c1.6.2 2.8.2 4.4-.1 0 0 .5.3 1.1.5-4.1 1.2-8.7.1-5.9-1.1m4.4-3.5c.9 1-2.1 2.1-2.1 2.1s2.1.2 3.5-1.4c.5-.6.2-1.1-.1-1.3-.4-.2-.7.1-1.3.6M8.5 22.2s3.3 1.9 7.5.3c0 0 .8.6 1.2.5-6.9 3-14.8.2-8.7-.8M20.3 19c.1.1-.1.2-.1.2-.5.2-2.3 1.2-4.8.4 0 0 .5.5 1.5.6 2.5.4 4.2-.8 3.4-1.2M13.5 13.2s3.7-1.9 2-4.2c-1.4-1.8-3.5-.4-3.5-.4s1.9-2 4.7-.6c2.9 1.5 2.6 4.7 1.1 5.6-1.4.8-3.1.5-4.3-.4M17 23.2c2.9-.9 5.1-3.5 4.6-7.2 0 0 1.2 3.1-1.2 5.6-1.9 2-3.6 1.7-3.4 1.6"/><path fill="#5382A1" d="M12.3 0s2.2 2.2-2.1 5.6c-3.4 2.7-.8 4.3-.8 4.3s-2.1-1.1.5-4.2C12.6 2.6 12.3 0 12.3 0"/></svg>
